<svg width="16" height="13" viewBox="0 0 16 13" fill="none" xmlns="http://www.w3.org/2000/svg">
<path d="M15.2598 6.62981L9.62869 12.2609C9.56236 12.3383 9.48073 12.4013 9.38892 12.4457C9.29712 12.4901 9.19713 12.515 9.09522 12.519C8.99332 12.5229 8.8917 12.5057 8.79674 12.4685C8.70179 12.4313 8.61555 12.3749 8.54343 12.3028C8.47132 12.2307 8.41489 12.1445 8.37769 12.0495C8.34049 11.9545 8.32332 11.8529 8.32726 11.751C8.33119 11.6491 8.35615 11.5491 8.40057 11.4573C8.44498 11.3655 8.50789 11.2839 8.58535 11.2175L12.3591 7.42896L1.25978 7.42896C1.06353 7.42896 0.875318 7.35101 0.736548 7.21224C0.597779 7.07347 0.519819 6.88526 0.519819 6.68901C0.519819 6.49276 0.597779 6.30455 0.736548 6.16578C0.875318 6.02701 1.06353 5.94905 1.25978 5.94905L12.4923 5.94905L8.58535 2.04208C8.50789 1.97574 8.44498 1.89411 8.40057 1.80231C8.35615 1.71051 8.33119 1.61051 8.32726 1.50861C8.32332 1.4067 8.34049 1.30508 8.37769 1.21013C8.41489 1.11517 8.47132 1.02893 8.54343 0.956819C8.61555 0.884706 8.70179 0.828278 8.79674 0.791077C8.8917 0.753876 8.99332 0.736705 9.09522 0.740641C9.19713 0.744576 9.29712 0.769536 9.38892 0.813951C9.48073 0.858365 9.56236 0.921277 9.62869 0.998736L15.2598 6.62981Z" fill="#EE1D52"/>
</svg>
