<svg width="17" height="24" viewBox="0 0 17 24" fill="none" xmlns="http://www.w3.org/2000/svg">
<path d="M12.0389 11.928V10.428L12.7989 5.17605C12.8324 4.93088 12.7957 4.68122 12.6931 4.45607C12.5904 4.23091 12.426 4.0395 12.2189 3.90406C12.3731 2.71633 12.3475 1.51216 12.1429 0.332066C12.1267 0.238149 12.0775 0.153098 12.0042 0.0922316C11.9308 0.0313648 11.8382 -0.00131887 11.7429 6.66121e-05H10.5269C10.4673 -0.00102083 10.4082 0.0112183 10.354 0.0358894C10.2997 0.0605605 10.2517 0.0970402 10.2134 0.142662C10.175 0.188285 10.1474 0.241897 10.1324 0.29958C10.1174 0.357264 10.1156 0.417561 10.1269 0.476065C10.3626 1.63694 10.3857 2.83096 10.1949 4.00006C8.77654 4.31839 7.30526 4.31839 5.88691 4.00006C5.69594 2.83796 5.71627 1.65094 5.94691 0.496065C5.95824 0.437561 5.95636 0.377263 5.94139 0.31958C5.92643 0.261897 5.89877 0.208285 5.86044 0.162662C5.8221 0.11704 5.77405 0.0805604 5.71981 0.0558893C5.66556 0.0312182 5.60649 0.0189791 5.54691 0.0200665H4.33091C4.23562 0.0186811 4.14296 0.0513647 4.06963 0.112232C3.99629 0.173098 3.9471 0.258149 3.93091 0.352066C3.72633 1.53216 3.70071 2.73633 3.85491 3.92406C3.64781 4.0595 3.48338 4.25091 3.38072 4.47607C3.27805 4.70122 3.24137 4.95088 3.27491 5.19605L4.03891 10.428V11.924L0.0789222 22.372C0.00958352 22.5536 -0.0145906 22.7494 0.00847985 22.9424C0.0315503 23.1354 0.101175 23.32 0.211362 23.4801C0.32155 23.6403 0.469001 23.7713 0.641029 23.8619C0.813057 23.9524 1.00451 23.9998 1.19892 24H14.8789C15.0731 24.0002 15.2645 23.9533 15.4367 23.8632C15.6088 23.7732 15.7564 23.6427 15.867 23.4829C15.9776 23.3232 16.0477 23.139 16.0713 22.9462C16.095 22.7534 16.0715 22.5577 16.0029 22.376L12.0389 11.928ZM11.4069 0.800064C11.5457 1.7569 11.5592 2.72775 11.4469 3.68806H11.4109C11.3134 3.69368 11.2169 3.70977 11.1229 3.73606L11.0349 3.76406C11.1636 2.77947 11.1528 1.78165 11.0029 0.800064H11.4069ZM4.67091 0.800064H5.07091C4.92062 1.78296 4.90984 2.78215 5.03891 3.76806L4.94691 3.74006C4.85423 3.71396 4.75902 3.69787 4.66291 3.69206H4.62691C4.51561 2.73025 4.5304 1.75804 4.67091 0.800064ZM4.41091 4.51205C4.51242 4.47986 4.6214 4.47986 4.72291 4.51205L4.94691 4.58005C5.11091 4.63205 5.27891 4.67205 5.43491 4.70805C7.14174 5.13664 8.92806 5.13664 10.6349 4.70805C10.7989 4.66805 10.9669 4.62805 11.1269 4.57605L11.3509 4.50805C11.4524 4.47612 11.5613 4.47612 11.6629 4.50805C11.7753 4.54596 11.8711 4.62173 11.9338 4.72241C11.9965 4.82309 12.0224 4.94244 12.0069 5.06005L11.2909 10H9.0869C8.79869 9.74225 8.42558 9.59974 8.0389 9.59974C7.65222 9.59974 7.27911 9.74225 6.9909 10H4.78691L4.07091 5.06405C4.05542 4.94644 4.08126 4.82709 4.144 4.72641C4.20674 4.62573 4.3025 4.54996 4.41491 4.51205H4.41091ZM6.4949 11.6H4.83891V10.8H6.4949C6.41912 11.0613 6.41912 11.3388 6.4949 11.6ZM7.0389 12.44C7.11265 12.5003 7.19163 12.5538 7.2749 12.6L7.5549 13.28L7.1549 14.22L6.9909 14.032C6.94997 13.9851 6.89865 13.9483 6.84101 13.9247C6.78337 13.9011 6.72101 13.8913 6.6589 13.896H6.4149L7.0389 12.44ZM7.3029 11.512V11.492C7.30554 11.3009 7.38366 11.1186 7.52022 10.9848C7.65677 10.8511 7.84069 10.7767 8.03183 10.7781C8.22298 10.7794 8.40584 10.8562 8.54054 10.9919C8.67523 11.1275 8.75083 11.3109 8.75083 11.502C8.75083 11.6932 8.67523 11.8766 8.54054 12.0122C8.40584 12.1478 8.22298 12.2247 8.03183 12.226C7.84069 12.2273 7.65677 12.153 7.52022 12.0193C7.38366 11.8855 7.30554 11.7032 7.3029 11.512ZM8.5029 12.712H8.5469C8.6996 12.6619 8.84389 12.5891 8.9749 12.496L10.0149 15.016L9.80689 14.972C9.73112 14.9586 9.65309 14.9673 9.58214 14.9971C9.51119 15.0269 9.45034 15.0765 9.40689 15.14L9.2869 15.32L8.3789 13.124L8.2189 12.8C8.31437 12.7834 8.4081 12.7579 8.4989 12.724L8.5029 12.712ZM9.5829 10.8H11.2389V11.6H9.5829C9.65868 11.3388 9.65868 11.0613 9.5829 10.8ZM15.2109 23.028C15.1737 23.0815 15.1241 23.1252 15.0662 23.1552C15.0084 23.1852 14.944 23.2005 14.8789 23.2H1.19892C1.13509 23.1979 1.07269 23.1806 1.01693 23.1494C0.961176 23.1183 0.91369 23.0742 0.878445 23.021C0.8432 22.9677 0.82122 22.9068 0.814343 22.8433C0.807467 22.7798 0.815894 22.7156 0.83892 22.656L4.71491 12.4H6.1909L5.44291 14.208C5.41424 14.2726 5.40321 14.3437 5.41094 14.414C5.41867 14.4842 5.44488 14.5512 5.48691 14.608C5.52719 14.6636 5.58109 14.7079 5.64344 14.7366C5.70579 14.7653 5.77448 14.7775 5.84291 14.772L6.5349 14.72L6.9909 15.244C7.02839 15.2867 7.07453 15.3209 7.12625 15.3443C7.17798 15.3678 7.23411 15.38 7.2909 15.38H7.3549C7.42175 15.369 7.48471 15.3413 7.53789 15.2993C7.59106 15.2573 7.6327 15.2025 7.6589 15.14L7.9909 14.34L8.8189 16.34C8.84689 16.407 8.89258 16.4651 8.95106 16.5081C9.00955 16.551 9.07863 16.5773 9.1509 16.584H9.1909C9.25646 16.5826 9.32067 16.5651 9.37787 16.533C9.43507 16.5009 9.4835 16.4552 9.5189 16.4L9.91889 15.824L10.5989 15.964C10.6698 15.9781 10.7432 15.9727 10.8113 15.9484C10.8794 15.9241 10.9396 15.8818 10.9855 15.826C11.0315 15.7702 11.0615 15.7029 11.0723 15.6315C11.0831 15.56 11.0743 15.4869 11.0469 15.42L9.79489 12.4H11.3629L15.2389 22.66C15.2641 22.7191 15.2747 22.7834 15.2699 22.8474C15.265 22.9115 15.2448 22.9734 15.2109 23.028Z" fill="#363636"/>
</svg>
