<svg width="20" height="20" viewBox="0 0 20 20" fill="none" xmlns="http://www.w3.org/2000/svg">
<path d="M16.25 7.5C18.3211 7.5 20 5.82107 20 3.75C20 1.67893 18.3211 0 16.25 0C14.1789 0 12.5 1.67893 12.5 3.75C12.5 5.82107 14.1789 7.5 16.25 7.5Z" fill="#363636"/>
<path d="M3.75 20C5.82107 20 7.5 18.3211 7.5 16.25C7.5 14.1789 5.82107 12.5 3.75 12.5C1.67893 12.5 0 14.1789 0 16.25C0 18.3211 1.67893 20 3.75 20Z" fill="#363636"/>
<path d="M12.5 12.5H20V18.75C20 19.0815 19.8683 19.3995 19.6339 19.6339C19.3995 19.8683 19.0815 20 18.75 20H13.75C13.4185 20 13.1005 19.8683 12.8661 19.6339C12.6317 19.3995 12.5 19.0815 12.5 18.75V12.5ZM0 0H7.5V6.25C7.5 6.58152 7.3683 6.89946 7.13388 7.13388C6.89946 7.3683 6.58152 7.5 6.25 7.5H1.25C0.918479 7.5 0.600537 7.3683 0.366117 7.13388C0.131696 6.89946 0 6.58152 0 6.25V0Z" fill="#363636"/>
</svg>
