<svg width="16" height="16" viewBox="0 0 16 16" fill="none" xmlns="http://www.w3.org/2000/svg">
<path d="M12.375 6.25C13.8247 6.25 15 5.07475 15 3.625C15 2.17525 13.8247 1 12.375 1C10.9253 1 9.75 2.17525 9.75 3.625C9.75 5.07475 10.9253 6.25 12.375 6.25Z" stroke="white" stroke-linecap="round" stroke-linejoin="round"/>
<path d="M3.625 15C5.07475 15 6.25 13.8247 6.25 12.375C6.25 10.9253 5.07475 9.75 3.625 9.75C2.17525 9.75 1 10.9253 1 12.375C1 13.8247 2.17525 15 3.625 15Z" stroke="white" stroke-linecap="round" stroke-linejoin="round"/>
<path d="M9.75 9.75H15V14.125C15 14.3571 14.9078 14.5796 14.7437 14.7437C14.5796 14.9078 14.3571 15 14.125 15H10.625C10.3929 15 10.1704 14.9078 10.0063 14.7437C9.84219 14.5796 9.75 14.3571 9.75 14.125V9.75ZM1 1H6.25V5.375C6.25 5.60706 6.15781 5.82962 5.99372 5.99372C5.82962 6.15781 5.60706 6.25 5.375 6.25H1.875C1.64294 6.25 1.42038 6.15781 1.25628 5.99372C1.09219 5.82962 1 5.60706 1 5.375V1Z" stroke="white" stroke-linecap="round" stroke-linejoin="round"/>
</svg>
