<svg width="32" height="32" viewBox="0 0 32 32" fill="none" xmlns="http://www.w3.org/2000/svg">
<path d="M8.35355 7.64645C8.15829 7.45118 7.84171 7.45118 7.64645 7.64645C7.45118 7.84171 7.45118 8.15829 7.64645 8.35355L15.2929 16L7.64645 23.6464C7.45118 23.8417 7.45118 24.1583 7.64645 24.3536C7.84171 24.5488 8.15829 24.5488 8.35355 24.3536L16 16.7071L23.6464 24.3536C23.8417 24.5488 24.1583 24.5488 24.3536 24.3536C24.5488 24.1583 24.5488 23.8417 24.3536 23.6464L16.7071 16L24.3536 8.35355C24.5488 8.15829 24.5488 7.84171 24.3536 7.64645C24.1583 7.45118 23.8417 7.45118 23.6464 7.64645L16 15.2929L8.35355 7.64645Z" stroke="#767676" stroke-linecap="round" stroke-linejoin="round"/>
<path d="M8.35355 7.64645C8.15829 7.45118 7.84171 7.45118 7.64645 7.64645C7.45118 7.84171 7.45118 8.15829 7.64645 8.35355L15.2929 16L7.64645 23.6464C7.45118 23.8417 7.45118 24.1583 7.64645 24.3536C7.84171 24.5488 8.15829 24.5488 8.35355 24.3536L16 16.7071L23.6464 24.3536C23.8417 24.5488 24.1583 24.5488 24.3536 24.3536C24.5488 24.1583 24.5488 23.8417 24.3536 23.6464L16.7071 16L24.3536 8.35355C24.5488 8.15829 24.5488 7.84171 24.3536 7.64645C24.1583 7.45118 23.8417 7.45118 23.6464 7.64645L16 15.2929L8.35355 7.64645Z" stroke="black" stroke-opacity="0.2" stroke-linecap="round" stroke-linejoin="round"/>
<path d="M8.35355 7.64645C8.15829 7.45118 7.84171 7.45118 7.64645 7.64645C7.45118 7.84171 7.45118 8.15829 7.64645 8.35355L15.2929 16L7.64645 23.6464C7.45118 23.8417 7.45118 24.1583 7.64645 24.3536C7.84171 24.5488 8.15829 24.5488 8.35355 24.3536L16 16.7071L23.6464 24.3536C23.8417 24.5488 24.1583 24.5488 24.3536 24.3536C24.5488 24.1583 24.5488 23.8417 24.3536 23.6464L16.7071 16L24.3536 8.35355C24.5488 8.15829 24.5488 7.84171 24.3536 7.64645C24.1583 7.45118 23.8417 7.45118 23.6464 7.64645L16 15.2929L8.35355 7.64645Z" stroke="black" stroke-opacity="0.2" stroke-linecap="round" stroke-linejoin="round"/>
<path d="M8.35355 7.64645C8.15829 7.45118 7.84171 7.45118 7.64645 7.64645C7.45118 7.84171 7.45118 8.15829 7.64645 8.35355L15.2929 16L7.64645 23.6464C7.45118 23.8417 7.45118 24.1583 7.64645 24.3536C7.84171 24.5488 8.15829 24.5488 8.35355 24.3536L16 16.7071L23.6464 24.3536C23.8417 24.5488 24.1583 24.5488 24.3536 24.3536C24.5488 24.1583 24.5488 23.8417 24.3536 23.6464L16.7071 16L24.3536 8.35355C24.5488 8.15829 24.5488 7.84171 24.3536 7.64645C24.1583 7.45118 23.8417 7.45118 23.6464 7.64645L16 15.2929L8.35355 7.64645Z" stroke="black" stroke-opacity="0.2" stroke-linecap="round" stroke-linejoin="round"/>
<path d="M8.35355 7.64645C8.15829 7.45118 7.84171 7.45118 7.64645 7.64645C7.45118 7.84171 7.45118 8.15829 7.64645 8.35355L15.2929 16L7.64645 23.6464C7.45118 23.8417 7.45118 24.1583 7.64645 24.3536C7.84171 24.5488 8.15829 24.5488 8.35355 24.3536L16 16.7071L23.6464 24.3536C23.8417 24.5488 24.1583 24.5488 24.3536 24.3536C24.5488 24.1583 24.5488 23.8417 24.3536 23.6464L16.7071 16L24.3536 8.35355C24.5488 8.15829 24.5488 7.84171 24.3536 7.64645C24.1583 7.45118 23.8417 7.45118 23.6464 7.64645L16 15.2929L8.35355 7.64645Z" stroke="black" stroke-opacity="0.2" stroke-linecap="round" stroke-linejoin="round"/>
<path d="M8.35355 7.64645C8.15829 7.45118 7.84171 7.45118 7.64645 7.64645C7.45118 7.84171 7.45118 8.15829 7.64645 8.35355L15.2929 16L7.64645 23.6464C7.45118 23.8417 7.45118 24.1583 7.64645 24.3536C7.84171 24.5488 8.15829 24.5488 8.35355 24.3536L16 16.7071L23.6464 24.3536C23.8417 24.5488 24.1583 24.5488 24.3536 24.3536C24.5488 24.1583 24.5488 23.8417 24.3536 23.6464L16.7071 16L24.3536 8.35355C24.5488 8.15829 24.5488 7.84171 24.3536 7.64645C24.1583 7.45118 23.8417 7.45118 23.6464 7.64645L16 15.2929L8.35355 7.64645Z" stroke="black" stroke-opacity="0.2" stroke-linecap="round" stroke-linejoin="round"/>
<path d="M8.35355 7.64645C8.15829 7.45118 7.84171 7.45118 7.64645 7.64645C7.45118 7.84171 7.45118 8.15829 7.64645 8.35355L15.2929 16L7.64645 23.6464C7.45118 23.8417 7.45118 24.1583 7.64645 24.3536C7.84171 24.5488 8.15829 24.5488 8.35355 24.3536L16 16.7071L23.6464 24.3536C23.8417 24.5488 24.1583 24.5488 24.3536 24.3536C24.5488 24.1583 24.5488 23.8417 24.3536 23.6464L16.7071 16L24.3536 8.35355C24.5488 8.15829 24.5488 7.84171 24.3536 7.64645C24.1583 7.45118 23.8417 7.45118 23.6464 7.64645L16 15.2929L8.35355 7.64645Z" stroke="black" stroke-opacity="0.2" stroke-linecap="round" stroke-linejoin="round"/>
<path d="M8.35355 7.64645C8.15829 7.45118 7.84171 7.45118 7.64645 7.64645C7.45118 7.84171 7.45118 8.15829 7.64645 8.35355L15.2929 16L7.64645 23.6464C7.45118 23.8417 7.45118 24.1583 7.64645 24.3536C7.84171 24.5488 8.15829 24.5488 8.35355 24.3536L16 16.7071L23.6464 24.3536C23.8417 24.5488 24.1583 24.5488 24.3536 24.3536C24.5488 24.1583 24.5488 23.8417 24.3536 23.6464L16.7071 16L24.3536 8.35355C24.5488 8.15829 24.5488 7.84171 24.3536 7.64645C24.1583 7.45118 23.8417 7.45118 23.6464 7.64645L16 15.2929L8.35355 7.64645Z" stroke="black" stroke-opacity="0.2" stroke-linecap="round" stroke-linejoin="round"/>
<path d="M8.35355 7.64645C8.15829 7.45118 7.84171 7.45118 7.64645 7.64645C7.45118 7.84171 7.45118 8.15829 7.64645 8.35355L15.2929 16L7.64645 23.6464C7.45118 23.8417 7.45118 24.1583 7.64645 24.3536C7.84171 24.5488 8.15829 24.5488 8.35355 24.3536L16 16.7071L23.6464 24.3536C23.8417 24.5488 24.1583 24.5488 24.3536 24.3536C24.5488 24.1583 24.5488 23.8417 24.3536 23.6464L16.7071 16L24.3536 8.35355C24.5488 8.15829 24.5488 7.84171 24.3536 7.64645C24.1583 7.45118 23.8417 7.45118 23.6464 7.64645L16 15.2929L8.35355 7.64645Z" stroke="black" stroke-opacity="0.2" stroke-linecap="round" stroke-linejoin="round"/>
<path d="M8.35355 7.64645C8.15829 7.45118 7.84171 7.45118 7.64645 7.64645C7.45118 7.84171 7.45118 8.15829 7.64645 8.35355L15.2929 16L7.64645 23.6464C7.45118 23.8417 7.45118 24.1583 7.64645 24.3536C7.84171 24.5488 8.15829 24.5488 8.35355 24.3536L16 16.7071L23.6464 24.3536C23.8417 24.5488 24.1583 24.5488 24.3536 24.3536C24.5488 24.1583 24.5488 23.8417 24.3536 23.6464L16.7071 16L24.3536 8.35355C24.5488 8.15829 24.5488 7.84171 24.3536 7.64645C24.1583 7.45118 23.8417 7.45118 23.6464 7.64645L16 15.2929L8.35355 7.64645Z" stroke="black" stroke-opacity="0.2" stroke-linecap="round" stroke-linejoin="round"/>
<path d="M8.35355 7.64645C8.15829 7.45118 7.84171 7.45118 7.64645 7.64645C7.45118 7.84171 7.45118 8.15829 7.64645 8.35355L15.2929 16L7.64645 23.6464C7.45118 23.8417 7.45118 24.1583 7.64645 24.3536C7.84171 24.5488 8.15829 24.5488 8.35355 24.3536L16 16.7071L23.6464 24.3536C23.8417 24.5488 24.1583 24.5488 24.3536 24.3536C24.5488 24.1583 24.5488 23.8417 24.3536 23.6464L16.7071 16L24.3536 8.35355C24.5488 8.15829 24.5488 7.84171 24.3536 7.64645C24.1583 7.45118 23.8417 7.45118 23.6464 7.64645L16 15.2929L8.35355 7.64645Z" stroke="black" stroke-opacity="0.2" stroke-linecap="round" stroke-linejoin="round"/>
<path d="M8.35355 7.64645C8.15829 7.45118 7.84171 7.45118 7.64645 7.64645C7.45118 7.84171 7.45118 8.15829 7.64645 8.35355L15.2929 16L7.64645 23.6464C7.45118 23.8417 7.45118 24.1583 7.64645 24.3536C7.84171 24.5488 8.15829 24.5488 8.35355 24.3536L16 16.7071L23.6464 24.3536C23.8417 24.5488 24.1583 24.5488 24.3536 24.3536C24.5488 24.1583 24.5488 23.8417 24.3536 23.6464L16.7071 16L24.3536 8.35355C24.5488 8.15829 24.5488 7.84171 24.3536 7.64645C24.1583 7.45118 23.8417 7.45118 23.6464 7.64645L16 15.2929L8.35355 7.64645Z" stroke="black" stroke-opacity="0.2" stroke-linecap="round" stroke-linejoin="round"/>
</svg>
