<svg width="20" height="20" viewBox="0 0 20 20" fill="none" xmlns="http://www.w3.org/2000/svg">
<path d="M8.998 3.38409C9.27332 3.13672 9.63038 2.99988 10.0005 2.99988C10.3706 2.99988 10.7277 3.13672 11.003 3.38409L16.503 8.32609C16.6594 8.46671 16.7844 8.63865 16.8701 8.83074C16.9557 9.02283 17 9.23078 17 9.44108V16.4961C17 16.8939 16.842 17.2754 16.5607 17.5567C16.2794 17.838 15.8978 17.9961 15.5 17.9961H13C12.6022 17.9961 12.2206 17.838 11.9393 17.5567C11.658 17.2754 11.5 16.8939 11.5 16.4961V12.9961C11.5 12.8635 11.4473 12.7363 11.3536 12.6425C11.2598 12.5488 11.1326 12.4961 11 12.4961H9C8.86739 12.4961 8.74021 12.5488 8.64645 12.6425C8.55268 12.7363 8.5 12.8635 8.5 12.9961V16.4961C8.5 16.8939 8.34196 17.2754 8.06066 17.5567C7.77936 17.838 7.39782 17.9961 7 17.9961H4.5C4.10218 17.9961 3.72064 17.838 3.43934 17.5567C3.15804 17.2754 3 16.8939 3 16.4961V9.44108C3 9.01608 3.18 8.61108 3.498 8.32609L8.998 3.38409ZM10.334 4.12809C10.2422 4.04572 10.1233 4.00017 10 4.00017C9.8767 4.00017 9.75775 4.04572 9.666 4.12809L4.166 9.07009C4.1139 9.11686 4.0722 9.17405 4.0436 9.23796C4.01501 9.30187 4.00015 9.37107 4 9.44108V16.4961C4 16.6287 4.05268 16.7559 4.14645 16.8496C4.24021 16.9434 4.36739 16.9961 4.5 16.9961H7C7.13261 16.9961 7.25979 16.9434 7.35355 16.8496C7.44732 16.7559 7.5 16.6287 7.5 16.4961V12.9961C7.5 12.5983 7.65804 12.2167 7.93934 11.9354C8.22064 11.6541 8.60218 11.4961 9 11.4961H11C11.3978 11.4961 11.7794 11.6541 12.0607 11.9354C12.342 12.2167 12.5 12.5983 12.5 12.9961V16.4961C12.5 16.6287 12.5527 16.7559 12.6464 16.8496C12.7402 16.9434 12.8674 16.9961 13 16.9961H15.5C15.6326 16.9961 15.7598 16.9434 15.8536 16.8496C15.9473 16.7559 16 16.6287 16 16.4961V9.44108C15.9998 9.37107 15.985 9.30187 15.9564 9.23796C15.9278 9.17405 15.8861 9.11686 15.834 9.07009L10.334 4.12809Z" fill="#767676"/>
<path d="M8.998 3.38409C9.27332 3.13672 9.63038 2.99988 10.0005 2.99988C10.3706 2.99988 10.7277 3.13672 11.003 3.38409L16.503 8.32609C16.6594 8.46671 16.7844 8.63865 16.8701 8.83074C16.9557 9.02283 17 9.23078 17 9.44108V16.4961C17 16.8939 16.842 17.2754 16.5607 17.5567C16.2794 17.838 15.8978 17.9961 15.5 17.9961H13C12.6022 17.9961 12.2206 17.838 11.9393 17.5567C11.658 17.2754 11.5 16.8939 11.5 16.4961V12.9961C11.5 12.8635 11.4473 12.7363 11.3536 12.6425C11.2598 12.5488 11.1326 12.4961 11 12.4961H9C8.86739 12.4961 8.74021 12.5488 8.64645 12.6425C8.55268 12.7363 8.5 12.8635 8.5 12.9961V16.4961C8.5 16.8939 8.34196 17.2754 8.06066 17.5567C7.77936 17.838 7.39782 17.9961 7 17.9961H4.5C4.10218 17.9961 3.72064 17.838 3.43934 17.5567C3.15804 17.2754 3 16.8939 3 16.4961V9.44108C3 9.01608 3.18 8.61108 3.498 8.32609L8.998 3.38409ZM10.334 4.12809C10.2422 4.04572 10.1233 4.00017 10 4.00017C9.8767 4.00017 9.75775 4.04572 9.666 4.12809L4.166 9.07009C4.1139 9.11686 4.0722 9.17405 4.0436 9.23796C4.01501 9.30187 4.00015 9.37107 4 9.44108V16.4961C4 16.6287 4.05268 16.7559 4.14645 16.8496C4.24021 16.9434 4.36739 16.9961 4.5 16.9961H7C7.13261 16.9961 7.25979 16.9434 7.35355 16.8496C7.44732 16.7559 7.5 16.6287 7.5 16.4961V12.9961C7.5 12.5983 7.65804 12.2167 7.93934 11.9354C8.22064 11.6541 8.60218 11.4961 9 11.4961H11C11.3978 11.4961 11.7794 11.6541 12.0607 11.9354C12.342 12.2167 12.5 12.5983 12.5 12.9961V16.4961C12.5 16.6287 12.5527 16.7559 12.6464 16.8496C12.7402 16.9434 12.8674 16.9961 13 16.9961H15.5C15.6326 16.9961 15.7598 16.9434 15.8536 16.8496C15.9473 16.7559 16 16.6287 16 16.4961V9.44108C15.9998 9.37107 15.985 9.30187 15.9564 9.23796C15.9278 9.17405 15.8861 9.11686 15.834 9.07009L10.334 4.12809Z" fill="black" fill-opacity="0.2"/>
<path d="M8.998 3.38409C9.27332 3.13672 9.63038 2.99988 10.0005 2.99988C10.3706 2.99988 10.7277 3.13672 11.003 3.38409L16.503 8.32609C16.6594 8.46671 16.7844 8.63865 16.8701 8.83074C16.9557 9.02283 17 9.23078 17 9.44108V16.4961C17 16.8939 16.842 17.2754 16.5607 17.5567C16.2794 17.838 15.8978 17.9961 15.5 17.9961H13C12.6022 17.9961 12.2206 17.838 11.9393 17.5567C11.658 17.2754 11.5 16.8939 11.5 16.4961V12.9961C11.5 12.8635 11.4473 12.7363 11.3536 12.6425C11.2598 12.5488 11.1326 12.4961 11 12.4961H9C8.86739 12.4961 8.74021 12.5488 8.64645 12.6425C8.55268 12.7363 8.5 12.8635 8.5 12.9961V16.4961C8.5 16.8939 8.34196 17.2754 8.06066 17.5567C7.77936 17.838 7.39782 17.9961 7 17.9961H4.5C4.10218 17.9961 3.72064 17.838 3.43934 17.5567C3.15804 17.2754 3 16.8939 3 16.4961V9.44108C3 9.01608 3.18 8.61108 3.498 8.32609L8.998 3.38409ZM10.334 4.12809C10.2422 4.04572 10.1233 4.00017 10 4.00017C9.8767 4.00017 9.75775 4.04572 9.666 4.12809L4.166 9.07009C4.1139 9.11686 4.0722 9.17405 4.0436 9.23796C4.01501 9.30187 4.00015 9.37107 4 9.44108V16.4961C4 16.6287 4.05268 16.7559 4.14645 16.8496C4.24021 16.9434 4.36739 16.9961 4.5 16.9961H7C7.13261 16.9961 7.25979 16.9434 7.35355 16.8496C7.44732 16.7559 7.5 16.6287 7.5 16.4961V12.9961C7.5 12.5983 7.65804 12.2167 7.93934 11.9354C8.22064 11.6541 8.60218 11.4961 9 11.4961H11C11.3978 11.4961 11.7794 11.6541 12.0607 11.9354C12.342 12.2167 12.5 12.5983 12.5 12.9961V16.4961C12.5 16.6287 12.5527 16.7559 12.6464 16.8496C12.7402 16.9434 12.8674 16.9961 13 16.9961H15.5C15.6326 16.9961 15.7598 16.9434 15.8536 16.8496C15.9473 16.7559 16 16.6287 16 16.4961V9.44108C15.9998 9.37107 15.985 9.30187 15.9564 9.23796C15.9278 9.17405 15.8861 9.11686 15.834 9.07009L10.334 4.12809Z" fill="black" fill-opacity="0.2"/>
<path d="M8.998 3.38409C9.27332 3.13672 9.63038 2.99988 10.0005 2.99988C10.3706 2.99988 10.7277 3.13672 11.003 3.38409L16.503 8.32609C16.6594 8.46671 16.7844 8.63865 16.8701 8.83074C16.9557 9.02283 17 9.23078 17 9.44108V16.4961C17 16.8939 16.842 17.2754 16.5607 17.5567C16.2794 17.838 15.8978 17.9961 15.5 17.9961H13C12.6022 17.9961 12.2206 17.838 11.9393 17.5567C11.658 17.2754 11.5 16.8939 11.5 16.4961V12.9961C11.5 12.8635 11.4473 12.7363 11.3536 12.6425C11.2598 12.5488 11.1326 12.4961 11 12.4961H9C8.86739 12.4961 8.74021 12.5488 8.64645 12.6425C8.55268 12.7363 8.5 12.8635 8.5 12.9961V16.4961C8.5 16.8939 8.34196 17.2754 8.06066 17.5567C7.77936 17.838 7.39782 17.9961 7 17.9961H4.5C4.10218 17.9961 3.72064 17.838 3.43934 17.5567C3.15804 17.2754 3 16.8939 3 16.4961V9.44108C3 9.01608 3.18 8.61108 3.498 8.32609L8.998 3.38409ZM10.334 4.12809C10.2422 4.04572 10.1233 4.00017 10 4.00017C9.8767 4.00017 9.75775 4.04572 9.666 4.12809L4.166 9.07009C4.1139 9.11686 4.0722 9.17405 4.0436 9.23796C4.01501 9.30187 4.00015 9.37107 4 9.44108V16.4961C4 16.6287 4.05268 16.7559 4.14645 16.8496C4.24021 16.9434 4.36739 16.9961 4.5 16.9961H7C7.13261 16.9961 7.25979 16.9434 7.35355 16.8496C7.44732 16.7559 7.5 16.6287 7.5 16.4961V12.9961C7.5 12.5983 7.65804 12.2167 7.93934 11.9354C8.22064 11.6541 8.60218 11.4961 9 11.4961H11C11.3978 11.4961 11.7794 11.6541 12.0607 11.9354C12.342 12.2167 12.5 12.5983 12.5 12.9961V16.4961C12.5 16.6287 12.5527 16.7559 12.6464 16.8496C12.7402 16.9434 12.8674 16.9961 13 16.9961H15.5C15.6326 16.9961 15.7598 16.9434 15.8536 16.8496C15.9473 16.7559 16 16.6287 16 16.4961V9.44108C15.9998 9.37107 15.985 9.30187 15.9564 9.23796C15.9278 9.17405 15.8861 9.11686 15.834 9.07009L10.334 4.12809Z" fill="black" fill-opacity="0.2"/>
<path d="M8.998 3.38409C9.27332 3.13672 9.63038 2.99988 10.0005 2.99988C10.3706 2.99988 10.7277 3.13672 11.003 3.38409L16.503 8.32609C16.6594 8.46671 16.7844 8.63865 16.8701 8.83074C16.9557 9.02283 17 9.23078 17 9.44108V16.4961C17 16.8939 16.842 17.2754 16.5607 17.5567C16.2794 17.838 15.8978 17.9961 15.5 17.9961H13C12.6022 17.9961 12.2206 17.838 11.9393 17.5567C11.658 17.2754 11.5 16.8939 11.5 16.4961V12.9961C11.5 12.8635 11.4473 12.7363 11.3536 12.6425C11.2598 12.5488 11.1326 12.4961 11 12.4961H9C8.86739 12.4961 8.74021 12.5488 8.64645 12.6425C8.55268 12.7363 8.5 12.8635 8.5 12.9961V16.4961C8.5 16.8939 8.34196 17.2754 8.06066 17.5567C7.77936 17.838 7.39782 17.9961 7 17.9961H4.5C4.10218 17.9961 3.72064 17.838 3.43934 17.5567C3.15804 17.2754 3 16.8939 3 16.4961V9.44108C3 9.01608 3.18 8.61108 3.498 8.32609L8.998 3.38409ZM10.334 4.12809C10.2422 4.04572 10.1233 4.00017 10 4.00017C9.8767 4.00017 9.75775 4.04572 9.666 4.12809L4.166 9.07009C4.1139 9.11686 4.0722 9.17405 4.0436 9.23796C4.01501 9.30187 4.00015 9.37107 4 9.44108V16.4961C4 16.6287 4.05268 16.7559 4.14645 16.8496C4.24021 16.9434 4.36739 16.9961 4.5 16.9961H7C7.13261 16.9961 7.25979 16.9434 7.35355 16.8496C7.44732 16.7559 7.5 16.6287 7.5 16.4961V12.9961C7.5 12.5983 7.65804 12.2167 7.93934 11.9354C8.22064 11.6541 8.60218 11.4961 9 11.4961H11C11.3978 11.4961 11.7794 11.6541 12.0607 11.9354C12.342 12.2167 12.5 12.5983 12.5 12.9961V16.4961C12.5 16.6287 12.5527 16.7559 12.6464 16.8496C12.7402 16.9434 12.8674 16.9961 13 16.9961H15.5C15.6326 16.9961 15.7598 16.9434 15.8536 16.8496C15.9473 16.7559 16 16.6287 16 16.4961V9.44108C15.9998 9.37107 15.985 9.30187 15.9564 9.23796C15.9278 9.17405 15.8861 9.11686 15.834 9.07009L10.334 4.12809Z" fill="black" fill-opacity="0.2"/>
<path d="M8.998 3.38409C9.27332 3.13672 9.63038 2.99988 10.0005 2.99988C10.3706 2.99988 10.7277 3.13672 11.003 3.38409L16.503 8.32609C16.6594 8.46671 16.7844 8.63865 16.8701 8.83074C16.9557 9.02283 17 9.23078 17 9.44108V16.4961C17 16.8939 16.842 17.2754 16.5607 17.5567C16.2794 17.838 15.8978 17.9961 15.5 17.9961H13C12.6022 17.9961 12.2206 17.838 11.9393 17.5567C11.658 17.2754 11.5 16.8939 11.5 16.4961V12.9961C11.5 12.8635 11.4473 12.7363 11.3536 12.6425C11.2598 12.5488 11.1326 12.4961 11 12.4961H9C8.86739 12.4961 8.74021 12.5488 8.64645 12.6425C8.55268 12.7363 8.5 12.8635 8.5 12.9961V16.4961C8.5 16.8939 8.34196 17.2754 8.06066 17.5567C7.77936 17.838 7.39782 17.9961 7 17.9961H4.5C4.10218 17.9961 3.72064 17.838 3.43934 17.5567C3.15804 17.2754 3 16.8939 3 16.4961V9.44108C3 9.01608 3.18 8.61108 3.498 8.32609L8.998 3.38409ZM10.334 4.12809C10.2422 4.04572 10.1233 4.00017 10 4.00017C9.8767 4.00017 9.75775 4.04572 9.666 4.12809L4.166 9.07009C4.1139 9.11686 4.0722 9.17405 4.0436 9.23796C4.01501 9.30187 4.00015 9.37107 4 9.44108V16.4961C4 16.6287 4.05268 16.7559 4.14645 16.8496C4.24021 16.9434 4.36739 16.9961 4.5 16.9961H7C7.13261 16.9961 7.25979 16.9434 7.35355 16.8496C7.44732 16.7559 7.5 16.6287 7.5 16.4961V12.9961C7.5 12.5983 7.65804 12.2167 7.93934 11.9354C8.22064 11.6541 8.60218 11.4961 9 11.4961H11C11.3978 11.4961 11.7794 11.6541 12.0607 11.9354C12.342 12.2167 12.5 12.5983 12.5 12.9961V16.4961C12.5 16.6287 12.5527 16.7559 12.6464 16.8496C12.7402 16.9434 12.8674 16.9961 13 16.9961H15.5C15.6326 16.9961 15.7598 16.9434 15.8536 16.8496C15.9473 16.7559 16 16.6287 16 16.4961V9.44108C15.9998 9.37107 15.985 9.30187 15.9564 9.23796C15.9278 9.17405 15.8861 9.11686 15.834 9.07009L10.334 4.12809Z" fill="black" fill-opacity="0.2"/>
<path d="M8.998 3.38409C9.27332 3.13672 9.63038 2.99988 10.0005 2.99988C10.3706 2.99988 10.7277 3.13672 11.003 3.38409L16.503 8.32609C16.6594 8.46671 16.7844 8.63865 16.8701 8.83074C16.9557 9.02283 17 9.23078 17 9.44108V16.4961C17 16.8939 16.842 17.2754 16.5607 17.5567C16.2794 17.838 15.8978 17.9961 15.5 17.9961H13C12.6022 17.9961 12.2206 17.838 11.9393 17.5567C11.658 17.2754 11.5 16.8939 11.5 16.4961V12.9961C11.5 12.8635 11.4473 12.7363 11.3536 12.6425C11.2598 12.5488 11.1326 12.4961 11 12.4961H9C8.86739 12.4961 8.74021 12.5488 8.64645 12.6425C8.55268 12.7363 8.5 12.8635 8.5 12.9961V16.4961C8.5 16.8939 8.34196 17.2754 8.06066 17.5567C7.77936 17.838 7.39782 17.9961 7 17.9961H4.5C4.10218 17.9961 3.72064 17.838 3.43934 17.5567C3.15804 17.2754 3 16.8939 3 16.4961V9.44108C3 9.01608 3.18 8.61108 3.498 8.32609L8.998 3.38409ZM10.334 4.12809C10.2422 4.04572 10.1233 4.00017 10 4.00017C9.8767 4.00017 9.75775 4.04572 9.666 4.12809L4.166 9.07009C4.1139 9.11686 4.0722 9.17405 4.0436 9.23796C4.01501 9.30187 4.00015 9.37107 4 9.44108V16.4961C4 16.6287 4.05268 16.7559 4.14645 16.8496C4.24021 16.9434 4.36739 16.9961 4.5 16.9961H7C7.13261 16.9961 7.25979 16.9434 7.35355 16.8496C7.44732 16.7559 7.5 16.6287 7.5 16.4961V12.9961C7.5 12.5983 7.65804 12.2167 7.93934 11.9354C8.22064 11.6541 8.60218 11.4961 9 11.4961H11C11.3978 11.4961 11.7794 11.6541 12.0607 11.9354C12.342 12.2167 12.5 12.5983 12.5 12.9961V16.4961C12.5 16.6287 12.5527 16.7559 12.6464 16.8496C12.7402 16.9434 12.8674 16.9961 13 16.9961H15.5C15.6326 16.9961 15.7598 16.9434 15.8536 16.8496C15.9473 16.7559 16 16.6287 16 16.4961V9.44108C15.9998 9.37107 15.985 9.30187 15.9564 9.23796C15.9278 9.17405 15.8861 9.11686 15.834 9.07009L10.334 4.12809Z" fill="black" fill-opacity="0.2"/>
<path d="M8.998 3.38409C9.27332 3.13672 9.63038 2.99988 10.0005 2.99988C10.3706 2.99988 10.7277 3.13672 11.003 3.38409L16.503 8.32609C16.6594 8.46671 16.7844 8.63865 16.8701 8.83074C16.9557 9.02283 17 9.23078 17 9.44108V16.4961C17 16.8939 16.842 17.2754 16.5607 17.5567C16.2794 17.838 15.8978 17.9961 15.5 17.9961H13C12.6022 17.9961 12.2206 17.838 11.9393 17.5567C11.658 17.2754 11.5 16.8939 11.5 16.4961V12.9961C11.5 12.8635 11.4473 12.7363 11.3536 12.6425C11.2598 12.5488 11.1326 12.4961 11 12.4961H9C8.86739 12.4961 8.74021 12.5488 8.64645 12.6425C8.55268 12.7363 8.5 12.8635 8.5 12.9961V16.4961C8.5 16.8939 8.34196 17.2754 8.06066 17.5567C7.77936 17.838 7.39782 17.9961 7 17.9961H4.5C4.10218 17.9961 3.72064 17.838 3.43934 17.5567C3.15804 17.2754 3 16.8939 3 16.4961V9.44108C3 9.01608 3.18 8.61108 3.498 8.32609L8.998 3.38409ZM10.334 4.12809C10.2422 4.04572 10.1233 4.00017 10 4.00017C9.8767 4.00017 9.75775 4.04572 9.666 4.12809L4.166 9.07009C4.1139 9.11686 4.0722 9.17405 4.0436 9.23796C4.01501 9.30187 4.00015 9.37107 4 9.44108V16.4961C4 16.6287 4.05268 16.7559 4.14645 16.8496C4.24021 16.9434 4.36739 16.9961 4.5 16.9961H7C7.13261 16.9961 7.25979 16.9434 7.35355 16.8496C7.44732 16.7559 7.5 16.6287 7.5 16.4961V12.9961C7.5 12.5983 7.65804 12.2167 7.93934 11.9354C8.22064 11.6541 8.60218 11.4961 9 11.4961H11C11.3978 11.4961 11.7794 11.6541 12.0607 11.9354C12.342 12.2167 12.5 12.5983 12.5 12.9961V16.4961C12.5 16.6287 12.5527 16.7559 12.6464 16.8496C12.7402 16.9434 12.8674 16.9961 13 16.9961H15.5C15.6326 16.9961 15.7598 16.9434 15.8536 16.8496C15.9473 16.7559 16 16.6287 16 16.4961V9.44108C15.9998 9.37107 15.985 9.30187 15.9564 9.23796C15.9278 9.17405 15.8861 9.11686 15.834 9.07009L10.334 4.12809Z" fill="black" fill-opacity="0.2"/>
<path d="M8.998 3.38409C9.27332 3.13672 9.63038 2.99988 10.0005 2.99988C10.3706 2.99988 10.7277 3.13672 11.003 3.38409L16.503 8.32609C16.6594 8.46671 16.7844 8.63865 16.8701 8.83074C16.9557 9.02283 17 9.23078 17 9.44108V16.4961C17 16.8939 16.842 17.2754 16.5607 17.5567C16.2794 17.838 15.8978 17.9961 15.5 17.9961H13C12.6022 17.9961 12.2206 17.838 11.9393 17.5567C11.658 17.2754 11.5 16.8939 11.5 16.4961V12.9961C11.5 12.8635 11.4473 12.7363 11.3536 12.6425C11.2598 12.5488 11.1326 12.4961 11 12.4961H9C8.86739 12.4961 8.74021 12.5488 8.64645 12.6425C8.55268 12.7363 8.5 12.8635 8.5 12.9961V16.4961C8.5 16.8939 8.34196 17.2754 8.06066 17.5567C7.77936 17.838 7.39782 17.9961 7 17.9961H4.5C4.10218 17.9961 3.72064 17.838 3.43934 17.5567C3.15804 17.2754 3 16.8939 3 16.4961V9.44108C3 9.01608 3.18 8.61108 3.498 8.32609L8.998 3.38409ZM10.334 4.12809C10.2422 4.04572 10.1233 4.00017 10 4.00017C9.8767 4.00017 9.75775 4.04572 9.666 4.12809L4.166 9.07009C4.1139 9.11686 4.0722 9.17405 4.0436 9.23796C4.01501 9.30187 4.00015 9.37107 4 9.44108V16.4961C4 16.6287 4.05268 16.7559 4.14645 16.8496C4.24021 16.9434 4.36739 16.9961 4.5 16.9961H7C7.13261 16.9961 7.25979 16.9434 7.35355 16.8496C7.44732 16.7559 7.5 16.6287 7.5 16.4961V12.9961C7.5 12.5983 7.65804 12.2167 7.93934 11.9354C8.22064 11.6541 8.60218 11.4961 9 11.4961H11C11.3978 11.4961 11.7794 11.6541 12.0607 11.9354C12.342 12.2167 12.5 12.5983 12.5 12.9961V16.4961C12.5 16.6287 12.5527 16.7559 12.6464 16.8496C12.7402 16.9434 12.8674 16.9961 13 16.9961H15.5C15.6326 16.9961 15.7598 16.9434 15.8536 16.8496C15.9473 16.7559 16 16.6287 16 16.4961V9.44108C15.9998 9.37107 15.985 9.30187 15.9564 9.23796C15.9278 9.17405 15.8861 9.11686 15.834 9.07009L10.334 4.12809Z" fill="black" fill-opacity="0.2"/>
<path d="M8.998 3.38409C9.27332 3.13672 9.63038 2.99988 10.0005 2.99988C10.3706 2.99988 10.7277 3.13672 11.003 3.38409L16.503 8.32609C16.6594 8.46671 16.7844 8.63865 16.8701 8.83074C16.9557 9.02283 17 9.23078 17 9.44108V16.4961C17 16.8939 16.842 17.2754 16.5607 17.5567C16.2794 17.838 15.8978 17.9961 15.5 17.9961H13C12.6022 17.9961 12.2206 17.838 11.9393 17.5567C11.658 17.2754 11.5 16.8939 11.5 16.4961V12.9961C11.5 12.8635 11.4473 12.7363 11.3536 12.6425C11.2598 12.5488 11.1326 12.4961 11 12.4961H9C8.86739 12.4961 8.74021 12.5488 8.64645 12.6425C8.55268 12.7363 8.5 12.8635 8.5 12.9961V16.4961C8.5 16.8939 8.34196 17.2754 8.06066 17.5567C7.77936 17.838 7.39782 17.9961 7 17.9961H4.5C4.10218 17.9961 3.72064 17.838 3.43934 17.5567C3.15804 17.2754 3 16.8939 3 16.4961V9.44108C3 9.01608 3.18 8.61108 3.498 8.32609L8.998 3.38409ZM10.334 4.12809C10.2422 4.04572 10.1233 4.00017 10 4.00017C9.8767 4.00017 9.75775 4.04572 9.666 4.12809L4.166 9.07009C4.1139 9.11686 4.0722 9.17405 4.0436 9.23796C4.01501 9.30187 4.00015 9.37107 4 9.44108V16.4961C4 16.6287 4.05268 16.7559 4.14645 16.8496C4.24021 16.9434 4.36739 16.9961 4.5 16.9961H7C7.13261 16.9961 7.25979 16.9434 7.35355 16.8496C7.44732 16.7559 7.5 16.6287 7.5 16.4961V12.9961C7.5 12.5983 7.65804 12.2167 7.93934 11.9354C8.22064 11.6541 8.60218 11.4961 9 11.4961H11C11.3978 11.4961 11.7794 11.6541 12.0607 11.9354C12.342 12.2167 12.5 12.5983 12.5 12.9961V16.4961C12.5 16.6287 12.5527 16.7559 12.6464 16.8496C12.7402 16.9434 12.8674 16.9961 13 16.9961H15.5C15.6326 16.9961 15.7598 16.9434 15.8536 16.8496C15.9473 16.7559 16 16.6287 16 16.4961V9.44108C15.9998 9.37107 15.985 9.30187 15.9564 9.23796C15.9278 9.17405 15.8861 9.11686 15.834 9.07009L10.334 4.12809Z" fill="black" fill-opacity="0.2"/>
<path d="M8.998 3.38409C9.27332 3.13672 9.63038 2.99988 10.0005 2.99988C10.3706 2.99988 10.7277 3.13672 11.003 3.38409L16.503 8.32609C16.6594 8.46671 16.7844 8.63865 16.8701 8.83074C16.9557 9.02283 17 9.23078 17 9.44108V16.4961C17 16.8939 16.842 17.2754 16.5607 17.5567C16.2794 17.838 15.8978 17.9961 15.5 17.9961H13C12.6022 17.9961 12.2206 17.838 11.9393 17.5567C11.658 17.2754 11.5 16.8939 11.5 16.4961V12.9961C11.5 12.8635 11.4473 12.7363 11.3536 12.6425C11.2598 12.5488 11.1326 12.4961 11 12.4961H9C8.86739 12.4961 8.74021 12.5488 8.64645 12.6425C8.55268 12.7363 8.5 12.8635 8.5 12.9961V16.4961C8.5 16.8939 8.34196 17.2754 8.06066 17.5567C7.77936 17.838 7.39782 17.9961 7 17.9961H4.5C4.10218 17.9961 3.72064 17.838 3.43934 17.5567C3.15804 17.2754 3 16.8939 3 16.4961V9.44108C3 9.01608 3.18 8.61108 3.498 8.32609L8.998 3.38409ZM10.334 4.12809C10.2422 4.04572 10.1233 4.00017 10 4.00017C9.8767 4.00017 9.75775 4.04572 9.666 4.12809L4.166 9.07009C4.1139 9.11686 4.0722 9.17405 4.0436 9.23796C4.01501 9.30187 4.00015 9.37107 4 9.44108V16.4961C4 16.6287 4.05268 16.7559 4.14645 16.8496C4.24021 16.9434 4.36739 16.9961 4.5 16.9961H7C7.13261 16.9961 7.25979 16.9434 7.35355 16.8496C7.44732 16.7559 7.5 16.6287 7.5 16.4961V12.9961C7.5 12.5983 7.65804 12.2167 7.93934 11.9354C8.22064 11.6541 8.60218 11.4961 9 11.4961H11C11.3978 11.4961 11.7794 11.6541 12.0607 11.9354C12.342 12.2167 12.5 12.5983 12.5 12.9961V16.4961C12.5 16.6287 12.5527 16.7559 12.6464 16.8496C12.7402 16.9434 12.8674 16.9961 13 16.9961H15.5C15.6326 16.9961 15.7598 16.9434 15.8536 16.8496C15.9473 16.7559 16 16.6287 16 16.4961V9.44108C15.9998 9.37107 15.985 9.30187 15.9564 9.23796C15.9278 9.17405 15.8861 9.11686 15.834 9.07009L10.334 4.12809Z" fill="black" fill-opacity="0.2"/>
<path d="M8.998 3.38409C9.27332 3.13672 9.63038 2.99988 10.0005 2.99988C10.3706 2.99988 10.7277 3.13672 11.003 3.38409L16.503 8.32609C16.6594 8.46671 16.7844 8.63865 16.8701 8.83074C16.9557 9.02283 17 9.23078 17 9.44108V16.4961C17 16.8939 16.842 17.2754 16.5607 17.5567C16.2794 17.838 15.8978 17.9961 15.5 17.9961H13C12.6022 17.9961 12.2206 17.838 11.9393 17.5567C11.658 17.2754 11.5 16.8939 11.5 16.4961V12.9961C11.5 12.8635 11.4473 12.7363 11.3536 12.6425C11.2598 12.5488 11.1326 12.4961 11 12.4961H9C8.86739 12.4961 8.74021 12.5488 8.64645 12.6425C8.55268 12.7363 8.5 12.8635 8.5 12.9961V16.4961C8.5 16.8939 8.34196 17.2754 8.06066 17.5567C7.77936 17.838 7.39782 17.9961 7 17.9961H4.5C4.10218 17.9961 3.72064 17.838 3.43934 17.5567C3.15804 17.2754 3 16.8939 3 16.4961V9.44108C3 9.01608 3.18 8.61108 3.498 8.32609L8.998 3.38409ZM10.334 4.12809C10.2422 4.04572 10.1233 4.00017 10 4.00017C9.8767 4.00017 9.75775 4.04572 9.666 4.12809L4.166 9.07009C4.1139 9.11686 4.0722 9.17405 4.0436 9.23796C4.01501 9.30187 4.00015 9.37107 4 9.44108V16.4961C4 16.6287 4.05268 16.7559 4.14645 16.8496C4.24021 16.9434 4.36739 16.9961 4.5 16.9961H7C7.13261 16.9961 7.25979 16.9434 7.35355 16.8496C7.44732 16.7559 7.5 16.6287 7.5 16.4961V12.9961C7.5 12.5983 7.65804 12.2167 7.93934 11.9354C8.22064 11.6541 8.60218 11.4961 9 11.4961H11C11.3978 11.4961 11.7794 11.6541 12.0607 11.9354C12.342 12.2167 12.5 12.5983 12.5 12.9961V16.4961C12.5 16.6287 12.5527 16.7559 12.6464 16.8496C12.7402 16.9434 12.8674 16.9961 13 16.9961H15.5C15.6326 16.9961 15.7598 16.9434 15.8536 16.8496C15.9473 16.7559 16 16.6287 16 16.4961V9.44108C15.9998 9.37107 15.985 9.30187 15.9564 9.23796C15.9278 9.17405 15.8861 9.11686 15.834 9.07009L10.334 4.12809Z" fill="black" fill-opacity="0.2"/>
</svg>
