<svg width="20" height="21" viewBox="0 0 20 21" fill="none" xmlns="http://www.w3.org/2000/svg">
<path d="M20 9.53468V19.1649C20 19.6069 19.8244 20.0308 19.5118 20.3434C19.1993 20.6559 18.7753 20.8315 18.3333 20.8315H14.1666C13.7246 20.8315 13.3007 20.6559 12.9881 20.3434C12.6756 20.0308 12.5 19.6069 12.5 19.1649V14.9982C12.5 14.7772 12.4122 14.5652 12.2559 14.409C12.0996 14.2527 11.8877 14.1649 11.6667 14.1649H8.33332C8.11231 14.1649 7.90035 14.2527 7.74407 14.409C7.58779 14.5652 7.49999 14.7772 7.49999 14.9982V19.1649C7.49999 19.6069 7.3244 20.0308 7.01184 20.3434C6.69928 20.6559 6.27535 20.8315 5.83333 20.8315H1.66666C1.22464 20.8315 0.800715 20.6559 0.488155 20.3434C0.175594 20.0308 1.92581e-08 19.6069 1.92581e-08 19.1649V9.53468C-3.50446e-05 9.30401 0.0478116 9.07584 0.140512 8.86462C0.233212 8.6534 0.368747 8.46373 0.538541 8.30759L8.87186 0.445103L8.88332 0.433645C9.19014 0.154617 9.58996 0 10.0047 0C10.4194 0 10.8192 0.154617 11.126 0.433645C11.1296 0.43772 11.1334 0.441549 11.1375 0.445103L19.4708 8.30759C19.6389 8.46455 19.7727 8.6546 19.8638 8.86578C19.9548 9.07696 20.0012 9.3047 20 9.53468Z" fill="#CB4609"/>
</svg>
