<svg width="129" height="128" viewBox="0 0 129 128" fill="none" xmlns="http://www.w3.org/2000/svg">
<path d="M109.358 66.4966L82.5168 79.8894C82.0075 77.1179 80.5907 74.5947 78.4894 72.7171C76.3882 70.8396 73.722 69.7146 70.911 69.5193L49.1838 68.021C45.3927 67.7597 41.5888 68.2902 38.0139 69.5787C34.4389 70.8672 31.1713 72.8855 28.4186 75.5052L26.0606 77.9122C20.9627 74.8069 18.1127 75.5329 16.5991 76.7518C16.5859 76.7624 16.5731 76.7753 16.5599 76.7862L16.5458 76.7961C16.2604 77.0445 9.52612 82.9254 7.62788 87.8899C7.53726 88.1257 7.49403 88.3771 7.50066 88.6296C7.50729 88.8821 7.56365 89.1308 7.66652 89.3615C7.76938 89.5922 7.91673 89.8004 8.10013 89.9741C8.28353 90.1478 8.49938 90.2836 8.73533 90.3738C8.97129 90.464 9.22271 90.5068 9.47521 90.4997C9.72771 90.4926 9.97634 90.4358 10.2069 90.3325C10.4374 90.2292 10.6453 90.0815 10.8187 89.8978C10.992 89.7141 11.1275 89.498 11.2172 89.2619C12.1755 87.2185 13.4628 85.3465 15.0278 83.7204C15.2203 84.6421 15.4762 85.5494 15.7937 86.4359C17.5734 91.0289 20.0901 95.3011 23.2448 99.0842C26.272 102.97 29.9123 106.336 34.0224 109.05C35.4553 109.984 37.0281 110.684 38.6816 111.122C37.9318 111.912 37.1062 112.625 36.2165 113.253C36.0104 113.399 35.835 113.584 35.7003 113.797C35.5655 114.01 35.4742 114.248 35.4314 114.497C35.3886 114.745 35.3952 115 35.4509 115.246C35.5065 115.492 35.6101 115.725 35.7557 115.931C35.9012 116.137 36.086 116.313 36.2994 116.447C36.5128 116.582 36.7506 116.674 36.9993 116.716C37.248 116.759 37.5026 116.752 37.7488 116.697C37.9949 116.641 38.2277 116.538 38.4338 116.392C41.2084 114.478 43.4274 111.864 44.8656 108.816C45.5327 107.505 45.8089 105.499 45.0184 102.453C47.5014 100.464 50.1883 98.7442 53.0342 97.3219L69.2809 98.4424C76.4204 98.9349 83.558 97.4565 89.9145 94.1687L116.522 80.1213C117.504 79.614 118.366 78.9011 119.047 78.0312C119.729 77.1612 120.216 76.1545 120.474 75.0797C120.731 74.0049 120.755 72.8871 120.542 71.8024C120.329 70.7178 119.885 69.6917 119.24 68.7941C118.123 67.3138 116.522 66.2729 114.716 65.853C112.91 65.4331 111.013 65.6609 109.358 66.4966ZM19.306 84.8075C18.2207 81.5523 18.6147 80.0792 19.0046 79.7519L19.0168 79.7411C19.4604 79.3907 20.9123 79.4743 23.2755 80.7553L19.306 84.8075ZM41.5151 106.873L41.5138 106.876C41.4669 107.048 41.3742 107.203 41.2455 107.326C41.003 107.52 40.3189 107.624 39.1351 107.263C39.8468 106.618 40.6874 105.894 41.6193 105.128C41.7024 105.711 41.6669 106.304 41.5151 106.873ZM116.736 74.1834C116.606 74.7241 116.361 75.2303 116.017 75.6672C115.673 76.1042 115.238 76.4617 114.743 76.7152L88.1355 90.7624C82.4066 93.7196 75.9768 95.0498 69.5448 94.6085L52.8833 93.4593C52.6276 93.443 52.3711 93.4766 52.1283 93.5584C48.0439 94.9582 39.0857 101.905 35.4791 105.409C31.9782 102.976 28.8626 100.031 26.2366 96.672C24.2034 94.1776 22.4291 91.4831 20.941 88.6298L31.1125 78.2448C33.4778 76.0069 36.2815 74.2836 39.3464 73.1838C42.4113 72.084 45.6709 71.6315 48.9195 71.8551L70.6468 73.3532C72.6896 73.4946 74.62 74.3408 76.1083 75.7473C77.5966 77.1539 78.5505 79.0334 78.807 81.0651L67.144 81.5399C66.6416 81.5602 66.1672 81.7767 65.8225 82.1428C65.4779 82.5089 65.2905 82.9955 65.3005 83.4982C65.3105 84.0009 65.5171 84.4796 65.8761 84.8317C66.2351 85.1838 66.7177 85.3811 67.2205 85.3814C67.2467 85.3814 67.2737 85.3807 67.3001 85.3801L80.8489 84.8284C80.9186 84.8224 80.9879 84.8126 81.0565 84.7989C81.0989 84.7925 81.1407 84.7901 81.1827 84.7809C81.3314 84.7491 81.4756 84.6996 81.6125 84.6336L81.6288 84.628L111.067 69.9387C111.904 69.5023 112.868 69.3731 113.791 69.5735C114.713 69.7739 115.537 70.2912 116.118 71.0355C116.441 71.4849 116.664 71.9988 116.77 72.542C116.877 73.0852 116.865 73.6451 116.736 74.1834Z" fill="url(#paint0_linear_125_7761)"/>
<g filter="url(#filter0_d_125_7761)">
<path d="M49.4994 45C44.2994 42.6 38.2228 36.2466 36.4995 28.5001C35.0717 22.0824 39.2971 15.9519 46.0395 14.9091C49.8485 14.32 53.7659 15.4457 56.5621 17.728C58.5381 14.7076 61.9324 12.4512 65.7414 11.8621C72.4839 10.8193 78.5596 15.0314 79.5573 21.4824C80.038 25.1549 76.8994 33.9 74.4994 37.5" stroke="url(#paint1_linear_125_7761)" stroke-width="4" stroke-linecap="round"/>
</g>
<g filter="url(#filter1_d_125_7761)">
<path d="M111.422 32.9523C108.99 35.217 105.578 37.566 101.255 40.5279C101.232 40.5411 101.199 40.5588 101.16 40.5795C101.054 40.6352 100.907 40.7076 100.744 40.7756C100.576 40.8454 100.422 40.8978 100.297 40.9276C100.267 40.9346 100.243 40.9394 100.225 40.9427C100.207 40.9354 100.185 40.9254 100.158 40.912C100.042 40.855 99.9036 40.7696 99.7558 40.6642C99.6118 40.5615 99.4847 40.4582 99.3938 40.3803C99.3598 40.3512 99.3322 40.3268 99.312 40.3087C95.7576 36.4583 92.9546 33.4082 91.0887 30.6587C89.2292 27.9188 88.5055 25.7661 88.7375 23.7095C89.1104 20.4033 92.1239 18.0035 95.8155 18.4199C97.9023 18.6553 99.8075 19.8187 100.934 21.3945L102.226 23.2026L103.888 21.7277C105.337 20.4424 107.453 19.7327 109.54 19.9681C113.232 20.3845 115.635 23.3953 115.262 26.7015C115.03 28.7581 113.845 30.6955 111.422 32.9523ZM101.299 40.5031C101.3 40.5029 101.3 40.5028 101.299 40.503L101.299 40.5031Z" stroke="url(#paint2_linear_125_7761)" stroke-width="4" shape-rendering="crispEdges"/>
</g>
<g filter="url(#filter2_d_125_7761)">
<path d="M56.7267 62C56.3932 60.7448 56.2254 59.4733 56.2361 58.1693C56.2966 50.7705 62.4197 45.0497 70.1527 45.1129C74.5213 45.1486 78.6983 47.1224 81.4102 50.1857C84.1717 47.1671 88.3804 45.2619 92.7491 45.2977C100.482 45.3609 106.511 51.1811 106.45 58.5798C106.438 60.0924 106.186 61.5572 105.715 63" stroke="url(#paint3_linear_125_7761)" stroke-width="4" stroke-linecap="round"/>
</g>
<defs>
<filter id="filter0_d_125_7761" x="34.2227" y="9.70471" width="50.0495" height="39.9624" filterUnits="userSpaceOnUse" color-interpolation-filters="sRGB">
<feFlood flood-opacity="0" result="BackgroundImageFix"/>
<feColorMatrix in="SourceAlpha" type="matrix" values="0 0 0 0 0 0 0 0 0 0 0 0 0 0 0 0 0 0 127 0" result="hardAlpha"/>
<feOffset dx="1.33333" dy="1.33333"/>
<feGaussianBlur stdDeviation="0.666667"/>
<feComposite in2="hardAlpha" operator="out"/>
<feColorMatrix type="matrix" values="0 0 0 0 0.717647 0 0 0 0 0.717647 0 0 0 0 0.717647 0 0 0 0.2 0"/>
<feBlend mode="normal" in2="BackgroundImageFix" result="effect1_dropShadow_125_7761"/>
<feBlend mode="normal" in="SourceGraphic" in2="effect1_dropShadow_125_7761" result="shape"/>
</filter>
<filter id="filter1_d_125_7761" x="86.6953" y="16.3734" width="32.4529" height="28.424" filterUnits="userSpaceOnUse" color-interpolation-filters="sRGB">
<feFlood flood-opacity="0" result="BackgroundImageFix"/>
<feColorMatrix in="SourceAlpha" type="matrix" values="0 0 0 0 0 0 0 0 0 0 0 0 0 0 0 0 0 0 127 0" result="hardAlpha"/>
<feOffset dx="0.923733" dy="0.923733"/>
<feGaussianBlur stdDeviation="0.461867"/>
<feComposite in2="hardAlpha" operator="out"/>
<feColorMatrix type="matrix" values="0 0 0 0 0.717647 0 0 0 0 0.717647 0 0 0 0 0.717647 0 0 0 0.2 0"/>
<feBlend mode="normal" in2="BackgroundImageFix" result="effect1_dropShadow_125_7761"/>
<feBlend mode="normal" in="SourceGraphic" in2="effect1_dropShadow_125_7761" result="shape"/>
</filter>
<filter id="filter2_d_125_7761" x="54.2344" y="43.1124" width="57.2374" height="24.9107" filterUnits="userSpaceOnUse" color-interpolation-filters="sRGB">
<feFlood flood-opacity="0" result="BackgroundImageFix"/>
<feColorMatrix in="SourceAlpha" type="matrix" values="0 0 0 0 0 0 0 0 0 0 0 0 0 0 0 0 0 0 127 0" result="hardAlpha"/>
<feOffset dx="1.5113" dy="1.5113"/>
<feGaussianBlur stdDeviation="0.755651"/>
<feComposite in2="hardAlpha" operator="out"/>
<feColorMatrix type="matrix" values="0 0 0 0 0.717647 0 0 0 0 0.717647 0 0 0 0 0.717647 0 0 0 0.2 0"/>
<feBlend mode="normal" in2="BackgroundImageFix" result="effect1_dropShadow_125_7761"/>
<feBlend mode="normal" in="SourceGraphic" in2="effect1_dropShadow_125_7761" result="shape"/>
</filter>
<linearGradient id="paint0_linear_125_7761" x1="100.5" y1="128" x2="31" y2="-4.5" gradientUnits="userSpaceOnUse">
<stop/>
<stop offset="1" stop-color="#FF5000"/>
</linearGradient>
<linearGradient id="paint1_linear_125_7761" x1="75.2113" y1="44.3147" x2="52.3234" y2="5.06336" gradientUnits="userSpaceOnUse">
<stop/>
<stop offset="1" stop-color="#FF5000"/>
</linearGradient>
<linearGradient id="paint2_linear_125_7761" x1="109.498" y1="46.8125" x2="97.1521" y2="11.2073" gradientUnits="userSpaceOnUse">
<stop/>
<stop offset="1" stop-color="#FF5000"/>
</linearGradient>
<linearGradient id="paint3_linear_125_7761" x1="97.4433" y1="64.8233" x2="92.2437" y2="37.4746" gradientUnits="userSpaceOnUse">
<stop/>
<stop offset="1" stop-color="#FF5000"/>
</linearGradient>
</defs>
</svg>
