<svg width="22" height="22" viewBox="0 0 22 22" fill="none" xmlns="http://www.w3.org/2000/svg">
<path d="M10.4418 0.41523C10.6416 -0.091257 11.3584 -0.0912576 11.5582 0.41523L14.2985 7.36347C14.3595 7.5181 14.4819 7.64051 14.6365 7.7015L21.5848 10.4418C22.0913 10.6416 22.0913 11.3584 21.5848 11.5582L14.6365 14.2985C14.4819 14.3595 14.3595 14.4819 14.2985 14.6365L11.5582 21.5848C11.3584 22.0913 10.6416 22.0913 10.4418 21.5848L7.7015 14.6365C7.64051 14.4819 7.5181 14.3595 7.36347 14.2985L0.41523 11.5582C-0.091257 11.3584 -0.0912576 10.6416 0.41523 10.4418L7.36347 7.7015C7.5181 7.64051 7.64051 7.5181 7.7015 7.36347L10.4418 0.41523Z" fill="#FCB900"/>
</svg>
