<svg width="14" height="15" viewBox="0 0 14 15" fill="none" xmlns="http://www.w3.org/2000/svg">
<path d="M6.5 10.6734V2.02344L4.17 4.35344L3.462 3.63444L7 0.0964355L10.538 3.63444L9.831 4.35444L7.5 2.02344V10.6734H6.5ZM1.615 14.0964C1.155 14.0964 0.771 13.9424 0.463 13.6344C0.154333 13.3258 0 12.9414 0 12.4814V10.0584H1V12.4814C1 12.6348 1.064 12.7758 1.192 12.9044C1.32067 13.0324 1.46167 13.0964 1.615 13.0964H12.385C12.5383 13.0964 12.6793 13.0324 12.808 12.9044C12.936 12.7758 13 12.6348 13 12.4814V10.0584H14V12.4814C14 12.9414 13.846 13.3254 13.538 13.6334C13.2293 13.9421 12.845 14.0964 12.385 14.0964H1.615Z" fill="#767676"/>
<path d="M6.5 10.6734V2.02344L4.17 4.35344L3.462 3.63444L7 0.0964355L10.538 3.63444L9.831 4.35444L7.5 2.02344V10.6734H6.5ZM1.615 14.0964C1.155 14.0964 0.771 13.9424 0.463 13.6344C0.154333 13.3258 0 12.9414 0 12.4814V10.0584H1V12.4814C1 12.6348 1.064 12.7758 1.192 12.9044C1.32067 13.0324 1.46167 13.0964 1.615 13.0964H12.385C12.5383 13.0964 12.6793 13.0324 12.808 12.9044C12.936 12.7758 13 12.6348 13 12.4814V10.0584H14V12.4814C14 12.9414 13.846 13.3254 13.538 13.6334C13.2293 13.9421 12.845 14.0964 12.385 14.0964H1.615Z" fill="black" fill-opacity="0.2"/>
<path d="M6.5 10.6734V2.02344L4.17 4.35344L3.462 3.63444L7 0.0964355L10.538 3.63444L9.831 4.35444L7.5 2.02344V10.6734H6.5ZM1.615 14.0964C1.155 14.0964 0.771 13.9424 0.463 13.6344C0.154333 13.3258 0 12.9414 0 12.4814V10.0584H1V12.4814C1 12.6348 1.064 12.7758 1.192 12.9044C1.32067 13.0324 1.46167 13.0964 1.615 13.0964H12.385C12.5383 13.0964 12.6793 13.0324 12.808 12.9044C12.936 12.7758 13 12.6348 13 12.4814V10.0584H14V12.4814C14 12.9414 13.846 13.3254 13.538 13.6334C13.2293 13.9421 12.845 14.0964 12.385 14.0964H1.615Z" fill="black" fill-opacity="0.2"/>
<path d="M6.5 10.6734V2.02344L4.17 4.35344L3.462 3.63444L7 0.0964355L10.538 3.63444L9.831 4.35444L7.5 2.02344V10.6734H6.5ZM1.615 14.0964C1.155 14.0964 0.771 13.9424 0.463 13.6344C0.154333 13.3258 0 12.9414 0 12.4814V10.0584H1V12.4814C1 12.6348 1.064 12.7758 1.192 12.9044C1.32067 13.0324 1.46167 13.0964 1.615 13.0964H12.385C12.5383 13.0964 12.6793 13.0324 12.808 12.9044C12.936 12.7758 13 12.6348 13 12.4814V10.0584H14V12.4814C14 12.9414 13.846 13.3254 13.538 13.6334C13.2293 13.9421 12.845 14.0964 12.385 14.0964H1.615Z" fill="black" fill-opacity="0.2"/>
<path d="M6.5 10.6734V2.02344L4.17 4.35344L3.462 3.63444L7 0.0964355L10.538 3.63444L9.831 4.35444L7.5 2.02344V10.6734H6.5ZM1.615 14.0964C1.155 14.0964 0.771 13.9424 0.463 13.6344C0.154333 13.3258 0 12.9414 0 12.4814V10.0584H1V12.4814C1 12.6348 1.064 12.7758 1.192 12.9044C1.32067 13.0324 1.46167 13.0964 1.615 13.0964H12.385C12.5383 13.0964 12.6793 13.0324 12.808 12.9044C12.936 12.7758 13 12.6348 13 12.4814V10.0584H14V12.4814C14 12.9414 13.846 13.3254 13.538 13.6334C13.2293 13.9421 12.845 14.0964 12.385 14.0964H1.615Z" fill="black" fill-opacity="0.2"/>
<path d="M6.5 10.6734V2.02344L4.17 4.35344L3.462 3.63444L7 0.0964355L10.538 3.63444L9.831 4.35444L7.5 2.02344V10.6734H6.5ZM1.615 14.0964C1.155 14.0964 0.771 13.9424 0.463 13.6344C0.154333 13.3258 0 12.9414 0 12.4814V10.0584H1V12.4814C1 12.6348 1.064 12.7758 1.192 12.9044C1.32067 13.0324 1.46167 13.0964 1.615 13.0964H12.385C12.5383 13.0964 12.6793 13.0324 12.808 12.9044C12.936 12.7758 13 12.6348 13 12.4814V10.0584H14V12.4814C14 12.9414 13.846 13.3254 13.538 13.6334C13.2293 13.9421 12.845 14.0964 12.385 14.0964H1.615Z" fill="black" fill-opacity="0.2"/>
<path d="M6.5 10.6734V2.02344L4.17 4.35344L3.462 3.63444L7 0.0964355L10.538 3.63444L9.831 4.35444L7.5 2.02344V10.6734H6.5ZM1.615 14.0964C1.155 14.0964 0.771 13.9424 0.463 13.6344C0.154333 13.3258 0 12.9414 0 12.4814V10.0584H1V12.4814C1 12.6348 1.064 12.7758 1.192 12.9044C1.32067 13.0324 1.46167 13.0964 1.615 13.0964H12.385C12.5383 13.0964 12.6793 13.0324 12.808 12.9044C12.936 12.7758 13 12.6348 13 12.4814V10.0584H14V12.4814C14 12.9414 13.846 13.3254 13.538 13.6334C13.2293 13.9421 12.845 14.0964 12.385 14.0964H1.615Z" fill="black" fill-opacity="0.2"/>
<path d="M6.5 10.6734V2.02344L4.17 4.35344L3.462 3.63444L7 0.0964355L10.538 3.63444L9.831 4.35444L7.5 2.02344V10.6734H6.5ZM1.615 14.0964C1.155 14.0964 0.771 13.9424 0.463 13.6344C0.154333 13.3258 0 12.9414 0 12.4814V10.0584H1V12.4814C1 12.6348 1.064 12.7758 1.192 12.9044C1.32067 13.0324 1.46167 13.0964 1.615 13.0964H12.385C12.5383 13.0964 12.6793 13.0324 12.808 12.9044C12.936 12.7758 13 12.6348 13 12.4814V10.0584H14V12.4814C14 12.9414 13.846 13.3254 13.538 13.6334C13.2293 13.9421 12.845 14.0964 12.385 14.0964H1.615Z" fill="black" fill-opacity="0.2"/>
<path d="M6.5 10.6734V2.02344L4.17 4.35344L3.462 3.63444L7 0.0964355L10.538 3.63444L9.831 4.35444L7.5 2.02344V10.6734H6.5ZM1.615 14.0964C1.155 14.0964 0.771 13.9424 0.463 13.6344C0.154333 13.3258 0 12.9414 0 12.4814V10.0584H1V12.4814C1 12.6348 1.064 12.7758 1.192 12.9044C1.32067 13.0324 1.46167 13.0964 1.615 13.0964H12.385C12.5383 13.0964 12.6793 13.0324 12.808 12.9044C12.936 12.7758 13 12.6348 13 12.4814V10.0584H14V12.4814C14 12.9414 13.846 13.3254 13.538 13.6334C13.2293 13.9421 12.845 14.0964 12.385 14.0964H1.615Z" fill="black" fill-opacity="0.2"/>
<path d="M6.5 10.6734V2.02344L4.17 4.35344L3.462 3.63444L7 0.0964355L10.538 3.63444L9.831 4.35444L7.5 2.02344V10.6734H6.5ZM1.615 14.0964C1.155 14.0964 0.771 13.9424 0.463 13.6344C0.154333 13.3258 0 12.9414 0 12.4814V10.0584H1V12.4814C1 12.6348 1.064 12.7758 1.192 12.9044C1.32067 13.0324 1.46167 13.0964 1.615 13.0964H12.385C12.5383 13.0964 12.6793 13.0324 12.808 12.9044C12.936 12.7758 13 12.6348 13 12.4814V10.0584H14V12.4814C14 12.9414 13.846 13.3254 13.538 13.6334C13.2293 13.9421 12.845 14.0964 12.385 14.0964H1.615Z" fill="black" fill-opacity="0.2"/>
<path d="M6.5 10.6734V2.02344L4.17 4.35344L3.462 3.63444L7 0.0964355L10.538 3.63444L9.831 4.35444L7.5 2.02344V10.6734H6.5ZM1.615 14.0964C1.155 14.0964 0.771 13.9424 0.463 13.6344C0.154333 13.3258 0 12.9414 0 12.4814V10.0584H1V12.4814C1 12.6348 1.064 12.7758 1.192 12.9044C1.32067 13.0324 1.46167 13.0964 1.615 13.0964H12.385C12.5383 13.0964 12.6793 13.0324 12.808 12.9044C12.936 12.7758 13 12.6348 13 12.4814V10.0584H14V12.4814C14 12.9414 13.846 13.3254 13.538 13.6334C13.2293 13.9421 12.845 14.0964 12.385 14.0964H1.615Z" fill="black" fill-opacity="0.2"/>
<path d="M6.5 10.6734V2.02344L4.17 4.35344L3.462 3.63444L7 0.0964355L10.538 3.63444L9.831 4.35444L7.5 2.02344V10.6734H6.5ZM1.615 14.0964C1.155 14.0964 0.771 13.9424 0.463 13.6344C0.154333 13.3258 0 12.9414 0 12.4814V10.0584H1V12.4814C1 12.6348 1.064 12.7758 1.192 12.9044C1.32067 13.0324 1.46167 13.0964 1.615 13.0964H12.385C12.5383 13.0964 12.6793 13.0324 12.808 12.9044C12.936 12.7758 13 12.6348 13 12.4814V10.0584H14V12.4814C14 12.9414 13.846 13.3254 13.538 13.6334C13.2293 13.9421 12.845 14.0964 12.385 14.0964H1.615Z" fill="black" fill-opacity="0.2"/>
</svg>
