<svg width="20" height="21" viewBox="0 0 20 21" fill="none" xmlns="http://www.w3.org/2000/svg">
<path fill-rule="evenodd" clip-rule="evenodd" d="M14.6761 0.628045C11.53 -0.0752338 8.2673 -0.0752338 5.12113 0.628045L4.78213 0.703045C3.89714 0.900907 3.08434 1.34023 2.434 1.97221C1.78366 2.60419 1.32124 3.40409 1.09813 4.28305C0.300624 7.42557 0.300624 10.7175 1.09813 13.86C1.3109 14.6983 1.74153 15.4654 2.34636 16.0836C2.95119 16.7018 3.70871 17.149 4.54213 17.38L5.00713 20.156C5.02197 20.2442 5.06017 20.3268 5.11776 20.3951C5.17535 20.4635 5.25021 20.5152 5.33455 20.5448C5.4189 20.5744 5.50963 20.5809 5.59732 20.5635C5.68501 20.5461 5.76644 20.5056 5.83313 20.446L8.56413 18.003C10.6142 18.1282 12.6717 17.9642 14.6761 17.516L15.0161 17.441C15.9011 17.2432 16.7139 16.8039 17.3643 16.1719C18.0146 15.5399 18.477 14.74 18.7001 13.861C19.4975 10.7185 19.4975 7.42658 18.7001 4.28405C18.4769 3.40496 18.0144 2.60498 17.3638 1.97298C16.7133 1.34099 15.9003 0.901742 15.0151 0.704045L14.6761 0.628045ZM5.96513 4.20205C5.77927 4.17499 5.58976 4.2124 5.42813 4.30805H5.41413C5.03913 4.52805 4.70113 4.80505 4.41313 5.13105C4.17313 5.40805 4.04313 5.68805 4.00913 5.95805C3.98913 6.11805 4.00313 6.28005 4.05013 6.43304L4.06813 6.44305C4.33813 7.23604 4.69013 7.99904 5.12013 8.71704C5.67458 9.72553 6.35688 10.6582 7.15013 11.492L7.17413 11.526L7.21213 11.554L7.23513 11.581L7.26313 11.605C8.09985 12.4007 9.03475 13.0862 10.0451 13.645C11.2001 14.274 11.9011 14.571 12.3221 14.695V14.701C12.4451 14.739 12.5571 14.756 12.6701 14.756C13.0287 14.7295 13.368 14.5838 13.6341 14.342C13.9591 14.054 14.2341 13.715 14.4481 13.338V13.331C14.6491 12.951 14.5811 12.593 14.2911 12.35C13.7086 11.8411 13.0788 11.389 12.4101 11C11.9621 10.757 11.5071 10.904 11.3231 11.15L10.9301 11.646C10.7281 11.892 10.3621 11.858 10.3621 11.858L10.3521 11.864C7.62113 11.167 6.89213 8.40205 6.89213 8.40205C6.89213 8.40205 6.85813 8.02604 7.11113 7.83404L7.60313 7.43805C7.83913 7.24605 8.00313 6.79205 7.75013 6.34405C7.36373 5.67481 6.91257 5.04512 6.40313 4.46405C6.29202 4.32729 6.13619 4.23415 5.96313 4.20105L5.96513 4.20205ZM10.5791 3.00005C10.4465 3.00005 10.3193 3.05272 10.2256 3.14649C10.1318 3.24026 10.0791 3.36744 10.0791 3.50005C10.0791 3.63265 10.1318 3.75983 10.2256 3.8536C10.3193 3.94737 10.4465 4.00005 10.5791 4.00005C11.8441 4.00005 12.8941 4.41305 13.7251 5.20505C14.1521 5.63805 14.4851 6.15105 14.7031 6.71305C14.9221 7.27605 15.0221 7.87704 14.9961 8.47904C14.9934 8.54471 15.0036 8.61027 15.0262 8.67198C15.0487 8.7337 15.0832 8.79037 15.1277 8.83875C15.2176 8.93646 15.3425 8.99448 15.4751 9.00004C15.6077 9.00561 15.7371 8.95828 15.8348 8.86845C15.9325 8.77862 15.9906 8.65365 15.9961 8.52104C16.0271 7.78053 15.9042 7.04163 15.6351 6.35105C15.3649 5.65718 14.9551 5.02616 14.4311 4.49705L14.4211 4.48705C13.3901 3.50205 12.0851 3.00005 10.5791 3.00005ZM10.5451 4.64405C10.4125 4.64405 10.2853 4.69672 10.1916 4.79049C10.0978 4.88426 10.0451 5.01144 10.0451 5.14405C10.0451 5.27665 10.0978 5.40383 10.1916 5.4976C10.2853 5.59137 10.4125 5.64405 10.5451 5.64405H10.5621C11.4741 5.70905 12.1381 6.01305 12.6031 6.51205C13.0801 7.02605 13.3271 7.66504 13.3081 8.45504C13.3051 8.58765 13.3548 8.71604 13.4464 8.81197C13.5381 8.90789 13.664 8.9635 13.7966 8.96655C13.9292 8.96959 14.0576 8.91984 14.1535 8.82823C14.2495 8.73662 14.3051 8.61065 14.3081 8.47804C14.3321 7.44104 13.9981 6.54605 13.3361 5.83205V5.83005C12.6591 5.10405 11.7301 4.72005 10.6121 4.64505L10.5951 4.64305L10.5451 4.64405ZM10.5261 6.31905C10.4592 6.31314 10.3918 6.32078 10.3279 6.34151C10.264 6.36223 10.2049 6.39562 10.1542 6.43968C10.1035 6.48374 10.0622 6.53757 10.0328 6.59794C10.0033 6.65832 9.98635 6.72401 9.98286 6.79109C9.97936 6.85818 9.98942 6.92528 10.0124 6.98839C10.0354 7.0515 10.0709 7.10932 10.1168 7.15841C10.1626 7.2075 10.2179 7.24685 10.2793 7.2741C10.3407 7.30136 10.407 7.31596 10.4741 7.31705C10.8921 7.33905 11.1591 7.46504 11.3271 7.63405C11.4961 7.80405 11.6221 8.07704 11.6451 8.50404C11.6464 8.57114 11.6611 8.63731 11.6885 8.69859C11.7158 8.75987 11.7553 8.81501 11.8044 8.86074C11.8535 8.90646 11.9113 8.94183 11.9744 8.96473C12.0375 8.98763 12.1045 8.9976 12.1716 8.99404C12.2386 8.99048 12.3042 8.97347 12.3645 8.94402C12.4248 8.91456 12.4785 8.87327 12.5226 8.8226C12.5666 8.77193 12.5999 8.71292 12.6206 8.64908C12.6413 8.58525 12.649 8.5179 12.6431 8.45105C12.6111 7.85105 12.4231 7.32104 12.0381 6.93105C11.6511 6.54105 11.1241 6.35105 10.5261 6.31905Z" fill="#CB4609"/>
</svg>
