<svg width="20" height="20" viewBox="0 0 20 20" fill="none" xmlns="http://www.w3.org/2000/svg">
<g clip-path="url(#clip0_1287_22139)">
<path d="M8.36964 7.7754L8.80332 9.32791C9.21175 10.7904 9.41553 11.5221 10.016 11.8546C10.6164 12.1879 11.3785 11.9912 12.9027 11.5996L14.5195 11.1829C16.0437 10.7912 16.8058 10.5954 17.1528 10.0196C17.4997 9.44291 17.296 8.71124 16.8867 7.24874L16.4538 5.69707C16.0454 4.23374 15.8408 3.50207 15.2412 3.16957C14.64 2.83624 13.8778 3.03291 12.3536 3.42541L10.7368 3.8404C9.21259 4.23207 8.45048 4.42874 8.10438 5.00541C7.75743 5.58124 7.96122 6.3129 8.36964 7.7754Z" fill="#CB4609"/>
<path d="M2.23341 4.87199C2.25559 4.79285 2.29333 4.7188 2.34445 4.6541C2.39557 4.58939 2.45908 4.53529 2.53135 4.49489C2.60361 4.4545 2.68321 4.42859 2.7656 4.41865C2.84799 4.40872 2.93156 4.41495 3.01151 4.43699L4.44562 4.83033C4.82569 4.93248 5.17254 5.13033 5.45235 5.4046C5.73217 5.67887 5.9354 6.0202 6.04225 6.39533L7.85362 12.8837L7.98667 13.3395C8.52372 13.5354 8.97629 13.9082 9.26835 14.3953L9.5294 14.3153L16.9989 12.3945C17.0792 12.3738 17.1628 12.369 17.245 12.3803C17.3271 12.3916 17.4062 12.4188 17.4778 12.4603C17.5493 12.5019 17.6119 12.557 17.662 12.6225C17.712 12.6879 17.7485 12.7625 17.7694 12.842C17.7903 12.9214 17.7952 13.0042 17.7838 13.0855C17.7724 13.1668 17.7449 13.2451 17.7029 13.3159C17.6609 13.3867 17.6052 13.4487 17.539 13.4982C17.4729 13.5477 17.3975 13.5838 17.3172 13.6045L9.87551 15.5178L9.59762 15.6028C9.59256 16.6612 8.85404 17.6295 7.73656 17.9162C6.39762 18.2612 5.02077 17.4978 4.66204 16.2128C4.3033 14.927 5.09825 13.6053 6.43719 13.2612C6.50317 13.2443 6.56974 13.2299 6.63677 13.2178L4.82456 6.72783C4.77578 6.56109 4.68422 6.40968 4.55879 6.28833C4.43336 6.16698 4.27833 6.07982 4.10877 6.03533L2.67383 5.64116C2.59386 5.61929 2.51904 5.58204 2.45362 5.53154C2.38821 5.48105 2.33349 5.41829 2.29259 5.34687C2.25169 5.27544 2.22542 5.19674 2.21526 5.11526C2.2051 5.03378 2.21127 4.95112 2.23341 4.87199Z" fill="#CB4609"/>
</g>
<defs>
<clipPath id="clip0_1287_22139">
<rect width="16" height="15" fill="white" transform="translate(2 3)"/>
</clipPath>
</defs>
</svg>
