<svg width="20" height="20" viewBox="0 0 20 20" fill="none" xmlns="http://www.w3.org/2000/svg">
<path fill-rule="evenodd" clip-rule="evenodd" d="M13.9361 4.98187C14.5662 4.797 15.1434 4.56946 15.6535 4.30692C14.7257 3.38182 13.572 2.68279 12.2824 2.29992C13.0079 3.0066 13.5523 3.976 13.9361 4.98187ZM15.6537 15.6481C15.1436 15.3855 14.5662 15.158 13.9362 14.9731C13.5524 15.979 13.0077 16.9486 12.2826 17.655C13.5721 17.2722 14.7259 16.5732 15.6537 15.6481ZM13.2553 14.7948C12.6837 16.2574 11.6862 17.7249 10.35 17.955V14.4404C11.3803 14.4633 12.3602 14.5877 13.2553 14.7948ZM9.64985 14.4404C8.61955 14.4633 7.63957 14.5877 6.74456 14.795C7.31632 16.2576 8.31325 17.7251 9.64985 17.9551V14.4404ZM6.06358 14.9731C6.44737 15.979 6.99197 16.9487 7.71724 17.655C6.42768 17.2722 5.27395 16.5733 4.34612 15.6481C4.85625 15.3855 5.43366 15.158 6.06358 14.9731ZM3.85804 15.1157C4.44056 14.799 5.10603 14.5275 5.83477 14.3113C5.4663 13.1315 5.24332 11.7746 5.21233 10.3275H2C2.0784 12.1467 2.76338 13.8084 3.85804 15.1157ZM6.51082 14.1308C7.47676 13.901 8.53714 13.7638 9.64967 13.7399V10.3275H5.91244C5.94343 11.7156 6.15785 13.0113 6.51082 14.1308ZM10.35 13.7401C11.4625 13.7639 12.5231 13.9012 13.489 14.131C13.8422 13.0115 14.0564 11.7156 14.0876 10.3275H10.35V13.7401ZM14.165 14.3111C14.5335 13.1315 14.7565 11.7744 14.7875 10.3274H17.9996C17.9214 12.1466 17.2363 13.8082 16.1416 15.1155C15.5593 14.799 14.894 14.5273 14.165 14.3111ZM2 9.62743H5.21214C5.24314 8.18052 5.46612 6.8235 5.83459 5.64388C5.10585 5.42765 4.44056 5.15599 3.85804 4.83948C2.76338 6.14654 2.07822 7.80822 2 9.62743ZM5.91226 9.62743H9.64985V6.21491C8.53733 6.19103 7.47694 6.05374 6.511 5.8242C6.15785 6.94365 5.94325 8.23941 5.91226 9.62743ZM10.35 9.62743H14.0876C14.0566 8.23941 13.8422 6.94365 13.489 5.8242C12.5231 6.05392 11.4627 6.19121 10.35 6.21491V9.62743ZM14.7877 9.62743C14.7567 8.18052 14.5337 6.8235 14.1652 5.64388C14.894 5.42765 15.5593 5.15599 16.1418 4.83948C17.2364 6.14654 17.9216 7.8084 18 9.62761L14.7877 9.62743ZM10.35 2C11.6864 2.23009 12.6837 3.69741 13.2553 5.16018C12.3602 5.3673 11.3803 5.49164 10.35 5.5148V2ZM9.64985 5.5148V2C8.31362 2.22991 7.31595 3.6976 6.74456 5.16018C7.63957 5.3673 8.61955 5.49164 9.64985 5.5148ZM4.34612 4.30692C5.27395 3.38163 6.42768 2.68279 7.71724 2.29992C6.99197 3.00623 6.44737 3.97618 6.06358 4.98187C5.43366 4.797 4.85625 4.56946 4.34612 4.30692Z" fill="#CB4609"/>
</svg>
