<svg width="15" height="19" viewBox="0 0 15 19" fill="none" xmlns="http://www.w3.org/2000/svg">
<path d="M14.1963 8.18999C14.1963 13.2809 7.6508 17.6445 7.6508 17.6445C7.6508 17.6445 1.10535 13.2809 1.10535 8.18999C1.10535 6.45402 1.79496 4.78916 3.02247 3.56165C4.24998 2.33414 5.91484 1.64453 7.6508 1.64453C9.38676 1.64453 11.0516 2.33414 12.2791 3.56165C13.5066 4.78916 14.1963 6.45402 14.1963 8.18999Z" fill="#CB4609" stroke="#CB4609" stroke-width="1.45455" stroke-linecap="round" stroke-linejoin="round"/>
<path d="M7.65075 10.3734C8.85574 10.3734 9.83257 9.39657 9.83257 8.19158C9.83257 6.9866 8.85574 6.00977 7.65075 6.00977C6.44577 6.00977 5.46893 6.9866 5.46893 8.19158C5.46893 9.39657 6.44577 10.3734 7.65075 10.3734Z" fill="white" stroke="white" stroke-width="1.45455" stroke-linecap="round" stroke-linejoin="round"/>
</svg>
