<svg width="20" height="20" viewBox="0 0 20 20" fill="none" xmlns="http://www.w3.org/2000/svg">
<path d="M9.60647 1C9.84881 1.00028 10.0819 1.09788 10.2581 1.27285C10.4343 1.44782 10.5404 1.68695 10.5546 1.94139C10.5688 2.19584 10.4901 2.44638 10.3345 2.64183C10.179 2.83729 9.95836 2.9629 9.71771 2.993L9.60647 3H4.85242C4.61954 3.00003 4.39477 3.08996 4.22073 3.25272C4.0467 3.41547 3.93552 3.63975 3.90827 3.883L3.90162 4V16C3.90165 16.2449 3.98715 16.4813 4.1419 16.6644C4.29665 16.8474 4.5099 16.9643 4.74118 16.993L4.85242 17H9.13106C9.3734 17.0003 9.6065 17.0979 9.78272 17.2728C9.95894 17.4478 10.065 17.687 10.0792 17.9414C10.0934 18.1958 10.0147 18.4464 9.85913 18.6418C9.70359 18.8373 9.48295 18.9629 9.24231 18.993L9.13106 19H4.85242C4.12486 19 3.42477 18.7077 2.89541 18.1827C2.36605 17.6578 2.04744 16.9399 2.00475 16.176L2 16V4C1.99996 3.23479 2.27795 2.49849 2.77708 1.94174C3.27621 1.38499 3.95877 1.04989 4.68508 1.005L4.85242 1H9.60647ZM15.0327 6.464L17.7216 9.293C17.8999 9.48053 18 9.73484 18 10C18 10.2652 17.8999 10.5195 17.7216 10.707L15.0327 13.536C14.8543 13.7235 14.6124 13.8288 14.3602 13.8287C14.108 13.8286 13.8661 13.7231 13.6878 13.5355C13.5095 13.3479 13.4094 13.0934 13.4095 12.8281C13.4096 12.5629 13.5099 12.3085 13.6883 12.121L14.7541 11H9.60647C9.3543 11 9.11245 10.8946 8.93414 10.7071C8.75583 10.5196 8.65566 10.2652 8.65566 10C8.65566 9.73478 8.75583 9.48043 8.93414 9.29289C9.11245 9.10536 9.3543 9 9.60647 9H14.7541L13.6883 7.879C13.5099 7.69149 13.4096 7.43712 13.4095 7.17185C13.4094 6.90658 13.5095 6.65214 13.6878 6.4645C13.8661 6.27686 14.108 6.17139 14.3602 6.1713C14.6124 6.1712 14.8543 6.27649 15.0327 6.464Z" fill="#CB4609"/>
</svg>
