<svg width="50" height="50" viewBox="0 0 50 50" fill="none" xmlns="http://www.w3.org/2000/svg">
<g clip-path="url(#clip0_893_13929)">
<path d="M44.9458 26.3147L32.9701 32.2901C32.7429 31.0536 32.1108 29.9278 31.1733 29.0901C30.2358 28.2524 29.0462 27.7505 27.792 27.6633L18.098 26.9948C16.4065 26.8783 14.7093 27.1149 13.1143 27.6898C11.5193 28.2647 10.0614 29.1652 8.83323 30.3341L7.78117 31.408C5.50664 30.0225 4.23504 30.3464 3.55975 30.8902C3.55386 30.895 3.54812 30.9007 3.54224 30.9056L3.53595 30.91C3.40864 31.0209 0.403994 33.6447 -0.442946 35.8597C-0.483375 35.9649 -0.502663 36.0771 -0.499705 36.1897C-0.496746 36.3024 -0.471601 36.4134 -0.425706 36.5163C-0.379812 36.6192 -0.31407 36.7121 -0.232242 36.7896C-0.150415 36.8671 -0.0541077 36.9277 0.0511674 36.968C0.156442 37.0082 0.268619 37.0273 0.381278 37.0241C0.493936 37.021 0.604867 36.9956 0.707719 36.9495C0.810571 36.9035 0.903327 36.8376 0.980679 36.7556C1.05803 36.6736 1.11846 36.5772 1.15851 36.4718C1.58605 35.5602 2.16042 34.7249 2.85868 33.9994C2.94456 34.4106 3.05873 34.8155 3.20039 35.211C3.99446 37.2603 5.11733 39.1664 6.52482 40.8543C7.87548 42.5878 9.49966 44.0896 11.3335 45.3006C11.9728 45.7174 12.6745 46.0295 13.4122 46.2252C13.0777 46.5775 12.7093 46.896 12.3124 47.176C12.2204 47.241 12.1422 47.3234 12.0821 47.4186C12.022 47.5138 11.9812 47.6199 11.9621 47.7309C11.943 47.8418 11.946 47.9555 11.9708 48.0653C11.9956 48.1751 12.0418 48.2789 12.1068 48.3709C12.1717 48.4628 12.2542 48.5411 12.3494 48.6012C12.4446 48.6613 12.5507 48.7021 12.6617 48.7212C12.7726 48.7402 12.8862 48.7373 12.9961 48.7125C13.1059 48.6877 13.2097 48.6414 13.3017 48.5765C14.5396 47.7226 15.5297 46.5564 16.1714 45.1963C16.469 44.6112 16.5922 43.7162 16.2395 42.3574C17.3474 41.47 18.5462 40.7026 19.8159 40.068L27.0647 40.5679C30.2501 40.7876 33.4347 40.128 36.2708 38.6611L48.1423 32.3936C48.5805 32.1673 48.9647 31.8492 49.2689 31.4611C49.5732 31.0729 49.7902 30.6238 49.9052 30.1442C50.0203 29.6646 50.0307 29.1659 49.9357 28.682C49.8408 28.1981 49.6427 27.7403 49.3549 27.3397C48.8566 26.6793 48.1421 26.2149 47.3363 26.0275C46.5304 25.8402 45.6844 25.9418 44.9458 26.3147ZM4.76745 34.4845C4.28324 33.0321 4.45905 32.3748 4.63298 32.2288L4.63846 32.224C4.83638 32.0676 5.48414 32.1049 6.53854 32.6765L4.76745 34.4845ZM14.6765 44.3293L14.6759 44.3308C14.655 44.4073 14.6136 44.4766 14.5562 44.5314C14.448 44.6183 14.1428 44.6645 13.6146 44.5033C13.9321 44.2158 14.3072 43.8928 14.723 43.5508C14.76 43.8108 14.7442 44.0756 14.6765 44.3293ZM48.2377 29.7443C48.1797 29.9855 48.0701 30.2114 47.9167 30.4063C47.7632 30.6013 47.5694 30.7608 47.3486 30.8739L35.477 37.1413C32.921 38.4607 30.0522 39.0542 27.1825 38.8573L19.7486 38.3446C19.6345 38.3373 19.5201 38.3523 19.4117 38.3888C17.5894 39.0133 13.5926 42.1129 11.9834 43.6761C10.4214 42.5905 9.03134 41.2765 7.85969 39.778C6.95255 38.6651 6.1609 37.4629 5.49694 36.1899L10.0352 31.5564C11.0905 30.5579 12.3414 29.789 13.7089 29.2983C15.0763 28.8076 16.5307 28.6057 17.9801 28.7055L27.6741 29.3739C28.5856 29.437 29.4469 29.8145 30.1109 30.4421C30.7749 31.0696 31.2005 31.9082 31.3149 32.8147L26.1113 33.0266C25.8871 33.0356 25.6755 33.1322 25.5217 33.2955C25.3679 33.4589 25.2843 33.676 25.2888 33.9003C25.2932 34.1245 25.3854 34.3382 25.5456 34.4952C25.7057 34.6523 25.9211 34.7404 26.1454 34.7405C26.1571 34.7405 26.1691 34.7402 26.1809 34.7399L32.226 34.4938C32.2571 34.4911 32.288 34.4867 32.3186 34.4806C32.3375 34.4777 32.3562 34.4767 32.3749 34.4726C32.4412 34.4584 32.5056 34.4363 32.5667 34.4068L32.574 34.4044L45.7083 27.8504C46.0819 27.6558 46.5119 27.5981 46.9236 27.6875C47.3353 27.7769 47.7026 28.0077 47.9618 28.3398C48.1061 28.5403 48.2054 28.7696 48.253 29.012C48.3006 29.2543 48.2954 29.5041 48.2377 29.7443ZM14.9024 9.36592C15.1052 8.71757 15.5115 8.15182 16.0611 7.75249C16.6107 7.35317 17.2743 7.14153 17.9536 7.14894H19.9516C20.2671 7.14952 20.5747 7.04992 20.83 6.86449C21.0853 6.67905 21.2751 6.41736 21.3721 6.11712L21.9897 4.21695C22.1991 3.57257 22.6071 3.01101 23.1552 2.61275C23.7034 2.2145 24.3635 2 25.0411 2C25.7186 2 26.3788 2.2145 26.9269 2.61275C27.4751 3.01101 27.8831 3.57257 28.0924 4.21695L28.7099 6.11682C28.8068 6.41714 28.9965 6.67892 29.2518 6.86443C29.507 7.04993 29.8146 7.14955 30.1302 7.14894H32.1281C32.8057 7.14893 33.4658 7.36342 34.014 7.76165C34.5621 8.15989 34.9701 8.72143 35.1795 9.3658C35.3889 10.0102 35.389 10.7043 35.1796 11.3487C34.9703 11.9931 34.5624 12.5547 34.0143 12.9529L32.3978 14.1274C32.2472 14.2364 32.1185 14.3727 32.0184 14.5293C31.9578 14.6241 31.8791 14.7061 31.7868 14.7706C31.6945 14.835 31.5904 14.8807 31.4804 14.9049C31.3705 14.9291 31.2569 14.9315 31.146 14.9118C31.0352 14.8921 30.9293 14.8507 30.8344 14.7901C30.7396 14.7295 30.6576 14.6508 30.5931 14.5585C30.5287 14.4662 30.483 14.3622 30.4588 14.2522C30.4346 14.1423 30.4323 14.0286 30.4519 13.9178C30.4716 13.807 30.513 13.7011 30.5736 13.6062C30.7888 13.2688 31.0659 12.975 31.3901 12.7403L33.0062 11.5658C33.2615 11.3804 33.4515 11.1189 33.5489 10.8189C33.6464 10.5189 33.6464 10.1957 33.5489 9.89565C33.4515 9.59562 33.2615 9.33416 33.0062 9.14874C32.751 8.96333 32.4436 8.86348 32.1281 8.86351H30.1302C29.4523 8.86481 28.7916 8.65077 28.2432 8.25226C27.6948 7.85375 27.2872 7.29137 27.0791 6.64623L26.4615 4.74678C26.3641 4.44679 26.1742 4.18535 25.919 3.99994C25.6638 3.81452 25.3565 3.71466 25.0411 3.71466C24.7256 3.71466 24.4183 3.81452 24.1632 3.99994C23.908 4.18535 23.7181 4.44679 23.6206 4.74678L23.0031 6.64694C22.7947 7.29192 22.3869 7.85409 21.8385 8.25244C21.2901 8.65079 20.6294 8.86475 19.9516 8.86351H17.9536C17.6382 8.86355 17.3308 8.96345 17.0756 9.14889C16.8205 9.33433 16.6305 9.59579 16.5331 9.89581C16.4356 10.1958 16.4357 10.519 16.5332 10.819C16.6307 11.119 16.8206 11.3804 17.0758 11.5658L18.6924 12.7403C19.2414 13.1378 19.6501 13.6993 19.8595 14.3439C20.069 14.9885 20.0684 15.683 19.8578 16.3273L19.2402 18.2274C19.1428 18.5274 19.1428 18.8505 19.2403 19.1505C19.3377 19.4505 19.5276 19.7119 19.7828 19.8973C20.0379 20.0827 20.3452 20.1826 20.6607 20.1826C20.9761 20.1827 21.2834 20.0829 21.5386 19.8975L23.1552 18.723C23.5203 18.4587 23.9368 18.274 24.3778 18.1808C24.8188 18.0876 25.2745 18.088 25.7153 18.1819C25.8255 18.2055 25.9298 18.2506 26.0225 18.3146C26.1152 18.3785 26.1944 18.4601 26.2555 18.5547C26.3167 18.6493 26.3586 18.755 26.3789 18.8658C26.3991 18.9765 26.3974 19.0902 26.3737 19.2003C26.3501 19.3104 26.305 19.4148 26.241 19.5075C26.177 19.6001 26.0953 19.6793 26.0007 19.7404C25.9061 19.8015 25.8004 19.8433 25.6896 19.8636C25.5788 19.8838 25.4652 19.882 25.3551 19.8583C25.1498 19.814 24.9375 19.8136 24.7321 19.857C24.5266 19.9004 24.3327 19.9866 24.1628 20.1101L22.5467 21.2846C22.0015 21.69 21.3402 21.9089 20.6609 21.9089C19.9815 21.9089 19.3203 21.69 18.7751 21.2846C18.2211 20.8914 17.8085 20.3302 17.5986 19.6841C17.3886 19.038 17.3924 18.3414 17.6094 17.6976L18.2269 15.7975C18.3249 15.4975 18.3252 15.1742 18.2277 14.874C18.1302 14.5739 17.94 14.3125 17.6844 14.1274L16.0678 12.9529C15.5139 12.5597 15.1014 11.9984 14.8914 11.3523C14.6815 10.7062 14.6854 10.0097 14.9024 9.36592ZM33.7142 15.5952C34.3935 15.5878 35.0571 15.7994 35.6067 16.1988C36.1563 16.5981 36.5626 17.1639 36.7654 17.8122L37.3829 19.7124C37.4799 20.0127 37.6698 20.2744 37.9251 20.4599C38.1804 20.6454 38.488 20.745 38.8036 20.7445H40.8015C41.4791 20.7445 42.1392 20.959 42.6873 21.3573C43.2354 21.7555 43.6434 22.3171 43.8528 22.9615C44.0621 23.6058 44.0621 24.2999 43.8527 24.9443C43.6434 25.5886 43.2354 26.1502 42.6872 26.5484L42.0342 27.0229C41.9432 27.0891 41.8399 27.1367 41.7305 27.163C41.621 27.1893 41.5074 27.1938 41.3962 27.1762C41.285 27.1586 41.1783 27.1193 41.0823 27.0604C40.9863 27.0016 40.9029 26.9245 40.8367 26.8334C40.7705 26.7423 40.7229 26.6391 40.6966 26.5296C40.6703 26.4201 40.6658 26.3066 40.6834 26.1953C40.701 26.0841 40.7404 25.9775 40.7992 25.8815C40.858 25.7855 40.9352 25.702 41.0262 25.6358L41.6792 25.1613C41.9344 24.9759 42.1243 24.7145 42.2218 24.4145C42.3193 24.1145 42.3193 23.7914 42.2219 23.4914C42.1244 23.1914 41.9345 22.93 41.6794 22.7445C41.4242 22.5591 41.117 22.4592 40.8015 22.4591H38.8035C38.1257 22.4603 37.4649 22.2463 36.9165 21.8478C36.3681 21.4494 35.9603 20.8872 35.752 20.2421L35.1344 18.3419C35.037 18.0419 34.8471 17.7805 34.5919 17.5951C34.3368 17.4097 34.0295 17.3098 33.7141 17.3098C33.3986 17.3098 33.0913 17.4097 32.8362 17.5951C32.581 17.7805 32.3911 18.0419 32.2937 18.3419L31.6761 20.2421C31.4678 20.8872 31.0601 21.4494 30.5118 21.8479C29.9634 22.2463 29.3027 22.4603 28.6249 22.4591H26.627C26.3549 22.4531 26.0867 22.5241 25.8532 22.6639C25.6198 22.8038 25.4306 23.0067 25.3075 23.2494C25.177 23.4891 25.115 23.7601 25.1285 24.0327C25.1419 24.3052 25.2301 24.5689 25.3835 24.7946C25.4483 24.8867 25.4942 24.9907 25.5188 25.1006C25.5433 25.2105 25.546 25.3242 25.5266 25.4351C25.5072 25.546 25.4662 25.6521 25.4058 25.7471C25.3455 25.8422 25.267 25.9244 25.1749 25.9892C25.0827 26.0539 24.9787 26.0999 24.8688 26.1244C24.7589 26.149 24.6453 26.1517 24.5343 26.1323C24.4234 26.1129 24.3174 26.0719 24.2223 26.0115C24.1272 25.9512 24.045 25.8727 23.9803 25.7805C23.6459 25.2981 23.4508 24.733 23.4165 24.147C23.3821 23.561 23.5099 22.9769 23.7857 22.4588C24.0525 21.9366 24.4598 21.4994 24.9619 21.1965C25.464 20.8936 26.0407 20.737 26.627 20.7445H28.6249C28.9404 20.7451 29.248 20.6455 29.5033 20.46C29.7586 20.2745 29.9483 20.0127 30.0452 19.7124L30.6627 17.8122C30.8655 17.1638 31.2719 16.598 31.8215 16.1987C32.3712 15.7994 33.0349 15.5878 33.7142 15.5952ZM38.1163 13.2908L39.0661 13.9807C39.1558 14.0456 39.2225 14.1373 39.2566 14.2426C39.2908 14.3478 39.2907 14.4612 39.2562 14.5664L38.8936 15.6826C38.7422 16.1317 38.7396 16.6177 38.886 17.0684C39.0325 17.5192 39.3202 17.9108 39.7067 18.1852C40.087 18.4682 40.5485 18.621 41.0225 18.621C41.4965 18.621 41.958 18.4682 42.3383 18.1852L43.288 17.4954C43.3773 17.4301 43.4851 17.3949 43.5958 17.3949C43.7064 17.3949 43.8142 17.4301 43.9035 17.4954L44.8534 18.1852C45.2358 18.4631 45.6964 18.6127 46.1691 18.6127C46.6418 18.6127 47.1024 18.4631 47.4848 18.1852C47.8672 17.9074 48.1519 17.5156 48.298 17.066C48.4441 16.6164 48.444 16.1322 48.298 15.6826L47.9353 14.5664C47.9009 14.4612 47.9008 14.3478 47.935 14.2426C47.9692 14.1373 48.0359 14.0456 48.1255 13.9807L49.0753 13.2908C49.4577 13.0129 49.7423 12.6211 49.8884 12.1715C50.0344 11.7219 50.0344 11.2377 49.8883 10.7881C49.7422 10.3385 49.4576 9.94672 49.0752 9.66886C48.6927 9.391 48.2322 9.24134 47.7595 9.24131H46.5857C46.475 9.24156 46.367 9.20662 46.2775 9.14155C46.1879 9.07647 46.1214 8.98463 46.0874 8.87927L45.7247 7.76311C45.5786 7.31358 45.2939 6.92185 44.9115 6.64405C44.5291 6.36624 44.0685 6.21662 43.5958 6.21662C43.1232 6.21662 42.6626 6.36624 42.2802 6.64405C41.8978 6.92185 41.6131 7.31358 41.467 7.76311L41.1043 8.87927C41.0703 8.98463 41.0037 9.07647 40.9141 9.14154C40.8245 9.20661 40.7166 9.24155 40.6059 9.24131H39.4324C38.9597 9.24127 38.4991 9.39089 38.1166 9.66873C37.7341 9.94656 37.4494 10.3384 37.3033 10.7879C37.1572 11.2375 37.1571 11.7218 37.3032 12.1714C37.4492 12.6211 37.7339 13.0129 38.1163 13.2908ZM38.9342 11.3179C38.9651 11.2107 39.0308 11.1169 39.1211 11.0514C39.2114 10.9858 39.3209 10.9522 39.4324 10.956H40.6059C41.0789 10.957 41.54 10.8077 41.9227 10.5296C42.3054 10.2516 42.5899 9.85924 42.7351 9.40909L43.0978 8.29293C43.132 8.18778 43.1986 8.09614 43.288 8.03116C43.3775 7.96618 43.4852 7.93118 43.5958 7.93118C43.7064 7.93118 43.8141 7.96618 43.9036 8.03116C43.993 8.09614 44.0596 8.18778 44.0938 8.29293L44.4564 9.40909C44.6017 9.85922 44.8862 10.2516 45.2689 10.5296C45.6516 10.8076 46.1127 10.9569 46.5857 10.956H47.7595C47.8701 10.956 47.9778 10.9911 48.0673 11.0561C48.1568 11.1211 48.2234 11.2128 48.2576 11.318C48.2917 11.4232 48.2917 11.5365 48.2576 11.6418C48.2234 11.747 48.1568 11.8386 48.0673 11.9037L47.1176 12.5936C46.7345 12.8709 46.4493 13.2627 46.3032 13.7124C46.157 14.1622 46.1575 14.6467 46.3044 15.0963L46.6671 16.2124C46.7014 16.3176 46.7015 16.4309 46.6674 16.5362C46.6332 16.6414 46.5666 16.7331 46.4772 16.7982C46.3877 16.8632 46.2799 16.8982 46.1692 16.8982C46.0586 16.8982 45.9508 16.8632 45.8614 16.7981L44.9116 16.1083C44.5296 15.8295 44.0689 15.6793 43.596 15.6793C43.1231 15.6793 42.6623 15.8295 42.2803 16.1083L41.3303 16.7981C41.2408 16.8632 41.1331 16.8983 41.0224 16.8983C40.9118 16.8983 40.804 16.8633 40.7145 16.7982C40.625 16.7332 40.5584 16.6414 40.5243 16.5362C40.4902 16.431 40.4902 16.3176 40.5245 16.2124L40.8872 15.0963C41.0341 14.6467 41.0345 14.1622 40.8884 13.7124C40.7422 13.2626 40.4569 12.8709 40.0738 12.5936L39.1244 11.9037C39.032 11.8412 38.963 11.7496 38.9286 11.6435C38.8941 11.5374 38.8961 11.4228 38.9342 11.3179Z" fill="url(#paint0_linear_893_13929)"/>
</g>
<defs>
<linearGradient id="paint0_linear_893_13929" x1="40.9937" y1="53.7556" x2="9.98496" y2="-5.36178" gradientUnits="userSpaceOnUse">
<stop/>
<stop offset="1" stop-color="#FF5000"/>
</linearGradient>
<clipPath id="clip0_893_13929">
<rect width="50" height="50" fill="white"/>
</clipPath>
</defs>
</svg>
