<svg width="20" height="20" viewBox="0 0 20 20" fill="none" xmlns="http://www.w3.org/2000/svg">
<path d="M3.615 18C3.16833 18 2.78733 17.8427 2.472 17.528C2.15733 17.2133 2 16.8323 2 16.385V5.487C2 5.29167 2.031 5.10833 2.093 4.937C2.15567 4.765 2.249 4.60667 2.373 4.462L3.931 2.59C4.07567 2.39533 4.25667 2.24833 4.474 2.149C4.69133 2.04967 4.92467 2 5.174 2H14.788C15.0373 2 15.274 2.04967 15.498 2.149C15.7213 2.249 15.9053 2.396 16.05 2.59L17.627 4.5C17.751 4.64467 17.8443 4.80633 17.907 4.985C17.969 5.163 18 5.34967 18 5.545V16.385C18 16.8317 17.8427 17.2127 17.528 17.528C17.2133 17.8427 16.8323 18 16.385 18H3.615ZM3.381 4.808H16.6L15.27 3.212C15.2053 3.14733 15.1313 3.096 15.048 3.058C14.9647 3.01933 14.878 3 14.788 3H5.192C5.10267 3 5.016 3.01933 4.932 3.058C4.84933 3.096 4.776 3.14733 4.712 3.212L3.381 4.808ZM13 5.808H7V12.596L10 11.096L13 12.596V5.808Z" fill="#CB4609"/>
</svg>
