<svg width="16" height="16" viewBox="0 0 16 16" fill="none" xmlns="http://www.w3.org/2000/svg">
<path fill-rule="evenodd" clip-rule="evenodd" d="M2.4 0C1.76348 0 1.15303 0.252856 0.702944 0.702944C0.252856 1.15303 0 1.76348 0 2.4V13.6C0 14.2365 0.252856 14.847 0.702944 15.2971C1.15303 15.7471 1.76348 16 2.4 16H9.6V12C9.6 11.3635 9.85286 10.753 10.3029 10.3029C10.753 9.85286 11.3635 9.6 12 9.6H16V2.4C16 1.76348 15.7471 1.15303 15.2971 0.702944C14.847 0.252856 14.2365 0 13.6 0H2.4ZM12.2344 15.2968C11.9468 15.5844 11.5909 15.7941 11.2 15.9064V12C11.2 11.7878 11.2843 11.5843 11.4343 11.4343C11.5843 11.2843 11.7878 11.2 12 11.2H15.9064C15.7941 11.5909 15.5844 11.9468 15.2968 12.2344L12.2344 15.2968ZM4 3.2C3.78783 3.2 3.58434 3.28429 3.43431 3.43431C3.28429 3.58434 3.2 3.78783 3.2 4C3.2 4.21217 3.28429 4.41566 3.43431 4.56569C3.58434 4.71571 3.78783 4.8 4 4.8H12C12.2122 4.8 12.4157 4.71571 12.5657 4.56569C12.7157 4.41566 12.8 4.21217 12.8 4C12.8 3.78783 12.7157 3.58434 12.5657 3.43431C12.4157 3.28429 12.2122 3.2 12 3.2H4ZM4 6.4C3.78783 6.4 3.58434 6.48429 3.43431 6.63432C3.28429 6.78434 3.2 6.98783 3.2 7.2C3.2 7.41217 3.28429 7.61566 3.43431 7.76569C3.58434 7.91571 3.78783 8 4 8H12C12.2122 8 12.4157 7.91571 12.5657 7.76569C12.7157 7.61566 12.8 7.41217 12.8 7.2C12.8 6.98783 12.7157 6.78434 12.5657 6.63432C12.4157 6.48429 12.2122 6.4 12 6.4H4ZM4 9.6C3.78783 9.6 3.58434 9.68429 3.43431 9.83432C3.28429 9.98434 3.2 10.1878 3.2 10.4C3.2 10.6122 3.28429 10.8157 3.43431 10.9657C3.58434 11.1157 3.78783 11.2 4 11.2H7.2C7.41217 11.2 7.61566 11.1157 7.76569 10.9657C7.91571 10.8157 8 10.6122 8 10.4C8 10.1878 7.91571 9.98434 7.76569 9.83432C7.61566 9.68429 7.41217 9.6 7.2 9.6H4Z" fill="#CB4609"/>
</svg>
